<?xml version="1.0" encoding="UTF-8" standalone="no"?>
<!-- Created with Inkscape (http://www.inkscape.org/) -->

<svg
   width="88.401314mm"
   height="64.825348mm"
   viewBox="0 0 88.401314 64.825348"
   version="1.1"
   id="svg1"
   inkscape:version="1.3.2 (091e20e, 2023-11-25)"
   sodipodi:docname="left_lateral.svg"
   xml:space="preserve"
   xmlns:inkscape="http://www.inkscape.org/namespaces/inkscape"
   xmlns:sodipodi="http://sodipodi.sourceforge.net/DTD/sodipodi-0.dtd"
   xmlns="http://www.w3.org/2000/svg"
   xmlns:svg="http://www.w3.org/2000/svg"><sodipodi:namedview
     id="namedview1"
     pagecolor="#ffffff"
     bordercolor="#000000"
     borderopacity="0.25"
     inkscape:showpageshadow="2"
     inkscape:pageopacity="0.0"
     inkscape:pagecheckerboard="0"
     inkscape:deskcolor="#d1d1d1"
     inkscape:document-units="mm"
     inkscape:zoom="1.6118299"
     inkscape:cx="111.98452"
     inkscape:cy="159.44611"
     inkscape:window-width="1728"
     inkscape:window-height="1055"
     inkscape:window-x="0"
     inkscape:window-y="34"
     inkscape:window-maximized="1"
     inkscape:current-layer="g1065-8-9" /><defs
     id="defs1" /><g
     inkscape:label="Layer 1"
     inkscape:groupmode="layer"
     id="layer1"
     transform="translate(0.90421068,-0.32733061)"><g
       id="g1067-1-0"
       transform="matrix(2.2827467,0,0,2.2086629,-137.99834,310.89713)"><g
         id="g1066-0-3"
         transform="matrix(-1.2917277,0,0,1.2917277,186.25467,24.53971)"
         style="stroke-width:0.226054;stroke-dasharray:none"><g
           id="g1065-8-9"
           transform="matrix(1.4464692,0,0,1.4464692,-274.77444,-147.32699)"
           style="stroke-width:0.15628;stroke-dasharray:none"><path
             style="fill:none;fill-opacity:1;stroke:#000000;stroke-width:0.5045204;stroke-linecap:round;stroke-linejoin:round;stroke-dasharray:none;stroke-opacity:1"
             d="m 247.89384,14.017512 c 0.84909,0.0031 1.96156,-0.165919 2.50611,0.611927 0.84218,0.375116 1.87934,0.412387 2.45455,1.243884 1.03985,0.336358 1.71891,1.134518 2.49762,1.822174 0.67066,0.654236 1.10347,1.461591 1.47937,2.358289 0.81843,0.642246 0.40817,1.699831 0.53126,2.581237 0.23307,0.827275 -0.44307,1.262435 -0.83105,1.718651 0.0884,0.91477 -1.11211,1.314349 -1.86261,1.107909 -0.75871,0.04184 -1.38469,0.902644 -2.2359,0.32486 -0.95837,-0.389929 -0.92397,-1.645602 -1.6751,-2.248736 -0.73858,-0.618514 -1.65683,-0.987341 -2.42418,-1.572727 -0.71603,-0.383407 -2.02401,-0.69045 -2.32464,-1.250575 0.48994,-0.241789 0.84503,0.750684 1.46442,0.449524 0.49067,0.693982 1.3039,0.881184 1.99105,1.324841 0.51648,0.601783 1.84413,0.314733 1.85723,-0.599395 0.62353,-0.428703 1.65472,0.562454 0.84463,1.160752 -0.0903,0.360108 -0.46065,0.66293 -0.31179,1.054233"
             id="path999-1-5" /><path
             style="fill:#000000;fill-opacity:1;stroke:#000000;stroke-width:0.5045204;stroke-linecap:round;stroke-linejoin:round;stroke-dasharray:none;stroke-opacity:1"
             d="m 252.20666,22.848247 c -0.20072,0.322865 -0.56477,0.472364 -0.77826,0.769314"
             id="path1000-4-3" /><path
             style="fill:none;fill-opacity:1;stroke:#000000;stroke-width:0.5045204;stroke-linecap:round;stroke-linejoin:round;stroke-dasharray:none;stroke-opacity:1"
             d="m 252.47502,24.404767 c 0.97583,0.320374 2.1222,0.108822 2.91624,-0.54567"
             id="path1001-8-1" /><path
             style="fill:none;fill-opacity:1;stroke:#000000;stroke-width:0.5045204;stroke-linecap:round;stroke-linejoin:round;stroke-dasharray:none;stroke-opacity:1"
             d="m 253.12805,24.583677 c -0.29311,0.227888 -0.62304,0.3957 -0.95717,0.554623"
             id="path1002-8-1" /><path
             style="fill:none;fill-opacity:1;stroke:#000000;stroke-width:0.5045204;stroke-linecap:round;stroke-linejoin:round;stroke-dasharray:none;stroke-opacity:1"
             d="m 254.83664,24.288475 c 0.37115,-0.03289 0.71895,-0.182857 1.09135,-0.214693"
             id="path1003-4-2" /><path
             style="fill:none;fill-opacity:1;stroke:#000000;stroke-width:0.5045204;stroke-linecap:round;stroke-linejoin:round;stroke-dasharray:none;stroke-opacity:1"
             d="m 251.76516,25.211194 c 0.11175,0.732575 0.21614,2.005213 -0.67974,2.281659 -1.00545,0.06385 -1.95106,0.661838 -2.97224,0.375872 -0.99029,-0.225707 -1.39447,-1.485797 -2.56706,-1.404424 -0.75382,-0.196596 -1.64743,-0.484668 -2.03491,-1.117557 -0.9647,0.03959 -1.83164,-0.32491 -2.76644,-0.440607 -0.43074,0.05059 -0.95793,-0.02547 -1.17331,-0.457126"
             id="path1004-5-6" /><path
             style="fill:none;fill-opacity:1;stroke:#000000;stroke-width:0.5045204;stroke-linecap:round;stroke-linejoin:round;stroke-dasharray:none;stroke-opacity:1"
             d="m 241.04138,23.170852 c -0.80215,0.399743 -1.30801,1.185319 -2.06534,1.621097 -0.5201,0.0048 -0.81328,-0.471767 -1.33717,-0.07107 -0.79289,-0.395156 -0.4294,-1.784579 -0.76659,-2.564246 0.0469,-0.897093 0.39051,-1.738982 0.91889,-2.436296 1.02908,-0.311362 0.51773,-1.724237 1.35844,-2.197929 0.75774,-0.458581 1.21837,-1.193714 1.67979,-1.908302 0.37573,-0.699601 1.51243,-1.039136 2.25524,-0.842944 0.49562,0.03107 0.67963,0.4469 0.94375,0.787953"
             id="path1005-7-9" /><path
             style="fill:none;fill-opacity:1;stroke:#000000;stroke-width:0.5045204;stroke-linecap:round;stroke-linejoin:round;stroke-dasharray:none;stroke-opacity:1"
             d="m 242.47011,14.637028 c 0.50238,-0.810203 1.54086,-1.084427 2.43814,-1.057288 0.54092,-0.181699 0.58615,0.710519 1.12425,0.178651 0.63368,-0.105552 1.26194,0.0026 1.85697,0.250479"
             id="path1006-9-1" /><path
             style="fill:none;fill-opacity:1;stroke:#000000;stroke-width:0.5045204;stroke-linecap:round;stroke-linejoin:round;stroke-dasharray:none;stroke-opacity:1"
             d="m 242.72032,25.14012 c -0.84751,-0.155179 -0.95513,-1.144703 -1.34667,-1.730745 -0.0488,-0.133031 -0.18557,-0.175028 -0.30216,-0.224629"
             id="path1007-8-90" /><path
             style="fill:none;fill-opacity:1;stroke:#000000;stroke-width:0.5045204;stroke-linecap:round;stroke-linejoin:round;stroke-dasharray:none;stroke-opacity:1"
             d="m 241.19764,22.713078 c 0.54529,-0.420002 0.3912,-0.89416 -0.0583,-1.312868 -0.2707,-0.749805 0.65686,-0.621827 1.08939,-0.71094"
             id="path1008-4-6" /><path
             style="fill:none;fill-opacity:1;stroke:#000000;stroke-width:0.5045204;stroke-linecap:round;stroke-linejoin:round;stroke-dasharray:none;stroke-opacity:1"
             d="m 239.95387,22.19408 c 0.27192,-0.511047 0.7122,0.0042 1.12755,-0.144557"
             id="path1009-5-1" /><path
             style="fill:none;fill-opacity:1;stroke:#000000;stroke-width:0.5045204;stroke-linecap:round;stroke-linejoin:round;stroke-dasharray:none;stroke-opacity:1"
             d="m 238.04572,23.278255 c 0.52214,-0.491209 0.53029,-1.188568 0.90007,-1.802216 0.29588,-0.192976 0.44832,-0.507118 0.71893,-0.727526"
             id="path1010-8-7" /><path
             style="fill:none;fill-opacity:1;stroke:#000000;stroke-width:0.5045204;stroke-linecap:round;stroke-linejoin:round;stroke-dasharray:none;stroke-opacity:1"
             d="m 238.20474,20.661779 c 0.61321,-0.169871 0.37468,-1.334945 0.73722,-1.864779 0.26554,-0.804478 0.69552,-1.571761 1.4076,-2.063547 0.83977,-0.604629 1.44543,0.776207 2.15751,0.267422 0.7122,-0.320429 1.64152,-0.553232 2.37615,-0.184316 0.47662,0.509708 0.72657,1.154926 1.25764,1.633491"
             id="path1011-8-3" /><path
             style="fill:none;fill-opacity:1;stroke:#000000;stroke-width:0.5045204;stroke-linecap:round;stroke-linejoin:round;stroke-dasharray:none;stroke-opacity:1"
             d="m 241.03372,17.75275 c -0.0113,0.982298 0.93096,1.560373 1.21678,2.33696 -0.0806,0.686048 0.77901,1.054047 1.28432,1.284363"
             id="path1012-9-8" /><path
             style="fill:none;fill-opacity:1;stroke:#000000;stroke-width:0.5045204;stroke-linecap:round;stroke-linejoin:round;stroke-dasharray:none;stroke-opacity:1"
             d="m 242.61533,19.675653 c -0.21548,-0.76673 0.30749,-1.236018 0.4664,-1.91239"
             id="path1013-4-70" /><path
             style="fill:none;fill-opacity:1;stroke:#000000;stroke-width:0.5045204;stroke-linecap:round;stroke-linejoin:round;stroke-dasharray:none;stroke-opacity:1"
             d="m 240.14312,19.461208 c 0.18018,0.216536 0.42785,0.384839 0.51638,0.663119"
             id="path1014-7-3" /><path
             style="fill:none;fill-opacity:1;stroke:#000000;stroke-width:0.5045204;stroke-linecap:round;stroke-linejoin:round;stroke-dasharray:none;stroke-opacity:1"
             d="m 242.53915,21.685226 c 0.85427,0.400928 1.7062,0.828179 2.18247,1.67039 0.71664,0.451793 1.60832,0.137478 2.35532,0.564962 0.91119,0.08252 1.27762,1.264209 2.23664,1.307935 0.194,0.0743 0.32501,0.243216 0.52111,0.316016"
             id="path1015-0-6" /><path
             style="fill:none;fill-opacity:1;stroke:#000000;stroke-width:0.5045204;stroke-linecap:round;stroke-linejoin:round;stroke-dasharray:none;stroke-opacity:1"
             d="m 243.29999,21.320411 c 0.0411,0.434123 0.62951,0.691546 0.99288,0.798383"
             id="path1016-4-9" /><path
             style="fill:none;fill-opacity:1;stroke:#000000;stroke-width:0.5045204;stroke-linecap:round;stroke-linejoin:round;stroke-dasharray:none;stroke-opacity:1"
             d="m 244.21688,22.142893 c 0.48667,0.6555 1.30347,1.111312 2.1688,1.023474 l 0.11348,-0.0084 0.0997,-0.0038"
             id="path1017-0-1" /><path
             style="fill:none;fill-opacity:1;stroke:#000000;stroke-width:0.5045204;stroke-linecap:round;stroke-linejoin:round;stroke-dasharray:none;stroke-opacity:1"
             d="M 246.90234,21.959106 C 246.12918,21.326328 245.17041,21.00999 244.42936,20.357511 243.3895,20.072785 243.3275,19.32129 244.13534,18.6756"
             id="path1018-6-4" /><path
             style="fill:none;fill-opacity:1;stroke:#000000;stroke-width:0.5045204;stroke-linecap:round;stroke-linejoin:round;stroke-dasharray:none;stroke-opacity:1"
             d="m 244.96897,20.727858 c 0.58635,0.268956 1.29597,0.05054 1.57967,-0.526555"
             id="path1021-8-6" /><path
             style="fill:none;fill-opacity:1;stroke:#000000;stroke-width:0.5045204;stroke-linecap:round;stroke-linejoin:round;stroke-dasharray:none;stroke-opacity:1"
             d="m 249.63896,26.838702 c -0.76292,-0.15375 -1.43623,-0.627141 -2.01598,-1.122277 -0.57113,-0.03248 -0.98282,-0.244646 -1.38918,-0.640526 -0.64936,-0.492017 -1.76884,0.201395 -2.16791,-0.799278 -0.0787,-0.101566 -0.12392,-0.24141 -0.25183,-0.295624"
             id="path1024-2-2" /><path
             style="fill:none;fill-opacity:1;stroke:#000000;stroke-width:0.5045204;stroke-linecap:round;stroke-linejoin:round;stroke-dasharray:none;stroke-opacity:1"
             d="m 244.4929,24.780279 c -0.20075,0.07385 -0.32652,0.249739 -0.4927,0.372268"
             id="path1025-4-4" /><path
             style="fill:none;fill-opacity:1;stroke:#000000;stroke-width:0.5045204;stroke-linecap:round;stroke-linejoin:round;stroke-dasharray:none;stroke-opacity:1"
             d="m 241.95272,22.962735 c 0.35356,0.199337 0.71575,0.315058 1.11681,0.372268"
             id="path1026-6-0" /><path
             style="fill:none;fill-opacity:1;stroke:#000000;stroke-width:0.5045204;stroke-linecap:round;stroke-linejoin:round;stroke-dasharray:none;stroke-opacity:1"
             d="m 243.71858,15.606792 c 0.20738,0.613109 1.05994,0.883861 0.98503,-0.04785 -5.8e-4,-0.470962 0.16605,-1.00774 0.58207,-1.274832"
             id="path1027-7-4" /><path
             style="fill:none;fill-opacity:1;stroke:#000000;stroke-width:0.5045204;stroke-linecap:round;stroke-linejoin:round;stroke-dasharray:none;stroke-opacity:1"
             d="m 245.79186,18.005912 c 0.18995,-0.470165 -0.013,-1.021749 0.34243,-1.434085"
             id="path1030-0-79" /><path
             style="fill:none;fill-opacity:1;stroke:#000000;stroke-width:0.5045204;stroke-linecap:round;stroke-linejoin:round;stroke-dasharray:none;stroke-opacity:1"
             d="m 248.33118,20.584839 c 0.0466,-0.850687 0.25473,-1.796583 -0.32631,-2.532406 -0.34803,-0.657413 -1.13208,-1.091072 -0.66405,-1.918197 -0.0942,-1.051272 -1.39248,-0.906795 -1.6722,-1.775096"
             id="path1033-0-0" /><path
             style="fill:none;fill-opacity:1;stroke:#000000;stroke-width:0.5045204;stroke-linecap:round;stroke-linejoin:round;stroke-dasharray:none;stroke-opacity:1"
             d="m 247.3392,14.168377 c 0.57835,0.641321 1.4082,1.195847 1.24813,2.193026"
             id="path1035-7-1" /><path
             style="fill:none;fill-opacity:1;stroke:#000000;stroke-width:0.5045204;stroke-linecap:round;stroke-linejoin:round;stroke-dasharray:none;stroke-opacity:1"
             d="m 247.37805,16.98991 c 0.0825,-0.214698 0.12362,-0.503871 0.37111,-0.595864"
             id="path1036-9-5" /><path
             style="fill:none;fill-opacity:1;stroke:#000000;stroke-width:0.5045204;stroke-linecap:round;stroke-linejoin:round;stroke-dasharray:none;stroke-opacity:1"
             d="m 248.13072,16.326101 c 0.42093,0.01366 0.81278,0.182212 1.23355,0.18291"
             id="path1037-7-2" /><path
             style="fill:none;fill-opacity:1;stroke:#000000;stroke-width:0.5045204;stroke-linecap:round;stroke-linejoin:round;stroke-dasharray:none;stroke-opacity:1"
             d="m 248.98924,16.456921 c 0.21214,-0.974962 1.61077,-1.227666 2.17159,-0.441585 0.71088,0.288247 1.58361,0.608035 1.74449,1.47665 0.39866,0.153512 0.82036,0.379933 0.78906,0.87586"
             id="path1038-5-2" /><path
             style="fill:none;fill-opacity:1;stroke:#000000;stroke-width:0.5045204;stroke-linecap:round;stroke-linejoin:round;stroke-dasharray:none;stroke-opacity:1"
             d="m 249.73481,16.471398 c 0.20465,0.357797 0.30478,0.94303 0.0579,1.295695"
             id="path1039-3-2" /><path
             style="fill:none;fill-opacity:1;stroke:#000000;stroke-width:0.5045204;stroke-linecap:round;stroke-linejoin:round;stroke-dasharray:none;stroke-opacity:1"
             d="m 249.24259,17.593368 c 0.27526,0.618694 1.2589,0.845657 1.14365,1.766199 0.009,0.744019 -0.21978,1.466432 -0.2316,2.207748"
             id="path1040-9-4" /><path
             style="fill:none;fill-opacity:1;stroke:#000000;stroke-width:0.5045204;stroke-linecap:round;stroke-linejoin:round;stroke-dasharray:none;stroke-opacity:1"
             d="m 250.39351,19.497099 c 0.78265,-0.562385 1.39988,0.501612 2.06298,0.702138 0.0539,0.230849 0.0987,0.449442 0.1809,0.673182"
             id="path1042-4-7" /><path
             style="fill:none;fill-opacity:1;stroke:#000000;stroke-width:0.5045204;stroke-linecap:round;stroke-linejoin:round;stroke-dasharray:none;stroke-opacity:1"
             d="m 252.93255,20.723049 c 0.47908,0.492378 1.63071,1.183789 1.1333,1.927411 l -0.0433,0.05376 -0.0213,0.08569"
             id="path1043-9-7" /><path
             style="fill:none;fill-opacity:1;stroke:#000000;stroke-width:0.5045204;stroke-linecap:round;stroke-linejoin:round;stroke-dasharray:none;stroke-opacity:1"
             d="m 252.4863,22.425864 c 0.1228,0.371908 0.49909,0.608692 0.55193,0.998202"
             id="path1044-1-2" /><path
             style="fill:none;fill-opacity:1;stroke:#000000;stroke-width:0.5045204;stroke-linecap:round;stroke-linejoin:round;stroke-dasharray:none;stroke-opacity:1"
             d="m 250.63081,18.961515 c 0.15613,-0.207993 0.42323,-0.282406 0.57544,-0.493229"
             id="path1047-8-0" /><path
             style="fill:none;fill-opacity:1;stroke:#000000;stroke-width:0.5045204;stroke-linecap:round;stroke-linejoin:round;stroke-dasharray:none;stroke-opacity:1"
             d="m 252.89732,18.67967 c 0.58346,0.122699 1.35419,-0.200989 1.6441,0.532866 0.28071,0.841095 1.67405,1.035202 1.20953,2.085949 -0.44081,0.625771 0.88097,1.280804 0.30537,1.996404"
             id="path1050-9-6" /><path
             style="fill:none;fill-opacity:1;stroke:#000000;stroke-width:0.5045204;stroke-linecap:round;stroke-linejoin:round;stroke-dasharray:none;stroke-opacity:1"
             d="m 245.23171,26.369783 c -0.28578,0.385708 -0.78805,1.052839 -1.14239,0.424748 -0.24723,0.674599 0.77585,1.751726 -0.47135,1.992847 -1.13921,0.587597 -2.56434,0.197613 -3.57476,-0.490517 -0.56594,-0.454662 -1.75069,-1.174182 -1.11912,-2.00272 0.39395,-0.667611 1.02167,-0.94003 1.59924,-1.36501"
             id="path1057-6-44" /><path
             style="fill:none;fill-opacity:1;stroke:#000000;stroke-width:0.5045204;stroke-linecap:round;stroke-linejoin:round;stroke-dasharray:none;stroke-opacity:1"
             d="m 244.26674,26.905705 c -0.32292,-0.836262 -1.34017,-0.787221 -2.06323,-1.028312 -0.7572,-0.06818 -1.46192,-0.422148 -2.2313,-0.340644 h -0.0242"
             id="path1058-1-8" /><path
             style="fill:none;fill-opacity:1;stroke:#000000;stroke-width:0.5045204;stroke-linecap:round;stroke-linejoin:round;stroke-dasharray:none;stroke-opacity:1"
             d="m 244.05715,26.966841 c -0.23486,1.018752 -1.52682,0.791054 -2.2752,0.536999 -0.81116,-0.384141 -1.84234,-0.557794 -2.34267,-1.380915 l -0.0548,-0.123401"
             id="path1059-9-0" /><path
             style="fill:none;fill-opacity:1;stroke:#000000;stroke-width:0.5045204;stroke-linecap:round;stroke-linejoin:round;stroke-dasharray:none;stroke-opacity:1"
             d="m 239.07104,26.657663 c 0.35349,0.194808 0.76395,0.163243 1.12824,0.329069"
             id="path1060-6-1" /><path
             style="fill:none;fill-opacity:1;stroke:#000000;stroke-width:0.5045204;stroke-linecap:round;stroke-linejoin:round;stroke-dasharray:none;stroke-opacity:1"
             d="m 244.147,26.901281 c -0.93524,-0.481001 -2.04438,-0.308717 -2.99185,-0.760726 -0.40187,-0.07576 -0.78459,-0.193531 -1.17525,-0.3134"
             id="path1061-7-5" /><path
             style="fill:none;fill-opacity:1;stroke:#000000;stroke-width:0.5045204;stroke-linecap:round;stroke-linejoin:round;stroke-dasharray:none;stroke-opacity:1"
             d="m 244.05409,27.582192 c -0.64782,0.744101 -1.69395,0.953682 -2.64822,0.814837 -0.15197,-0.01039 -0.30352,-0.02642 -0.45443,-0.04701"
             id="path1062-8-1" /><path
             style="fill:none;fill-opacity:1;stroke:#000000;stroke-width:0.5045204;stroke-linecap:round;stroke-linejoin:round;stroke-dasharray:none;stroke-opacity:1"
             d="m 244.22646,27.864251 c -0.35015,0.575026 -1.14245,0.772297 -1.75504,0.940197"
             id="path1063-9-1" /><path
             style="fill:none;fill-opacity:1;stroke:#000000;stroke-width:0.5045204;stroke-linecap:round;stroke-linejoin:round;stroke-dasharray:none;stroke-opacity:1"
             d="m 240.60914,25.507535 c -0.0329,-0.02974 -0.16208,-0.1385 -0.19373,-0.16314"
             id="path1064-7-1" /><path
             style="fill:none;fill-opacity:1;stroke:#000000;stroke-width:0.5045204;stroke-linecap:round;stroke-linejoin:round;stroke-dasharray:none;stroke-opacity:1"
             d="m 243.64634,25.899861 c -0.43675,-0.218519 -0.9067,-0.354185 -1.37798,-0.47734"
             id="path1065-5-5" /></g></g></g></g></svg>
