<?xml version="1.0" encoding="UTF-8" standalone="no"?>
<!-- Created with Inkscape (http://www.inkscape.org/) -->

<svg
   width="90.66095mm"
   height="65.103096mm"
   viewBox="0 0 90.66095 65.103096"
   version="1.1"
   id="svg1"
   inkscape:version="1.3.2 (091e20e, 2023-11-25)"
   sodipodi:docname="right_medial.svg"
   xml:space="preserve"
   xmlns:inkscape="http://www.inkscape.org/namespaces/inkscape"
   xmlns:sodipodi="http://sodipodi.sourceforge.net/DTD/sodipodi-0.dtd"
   xmlns="http://www.w3.org/2000/svg"
   xmlns:svg="http://www.w3.org/2000/svg"><sodipodi:namedview
     id="namedview1"
     pagecolor="#ffffff"
     bordercolor="#000000"
     borderopacity="0.25"
     inkscape:showpageshadow="2"
     inkscape:pageopacity="0.0"
     inkscape:pagecheckerboard="0"
     inkscape:deskcolor="#d1d1d1"
     inkscape:document-units="mm"
     inkscape:zoom="1.7339667"
     inkscape:cx="170.99521"
     inkscape:cy="156.28905"
     inkscape:window-width="1728"
     inkscape:window-height="1055"
     inkscape:window-x="0"
     inkscape:window-y="34"
     inkscape:window-maximized="1"
     inkscape:current-layer="g1065-8-9" /><defs
     id="defs1" /><g
     inkscape:label="Layer 1"
     inkscape:groupmode="layer"
     id="layer1"
     transform="translate(0.90708194,-0.42922737)"><g
       id="g1067-1-0"
       transform="matrix(2.2827467,0,0,2.2086629,-137.99834,310.89713)"><g
         id="g1066-0-3"
         transform="matrix(-1.2917277,0,0,1.2917277,186.25467,24.53971)"
         style="stroke-width:0.226054;stroke-dasharray:none"><g
           id="g1065-8-9"
           transform="matrix(1.4464692,0,0,1.4464692,-274.77444,-147.32699)"
           style="stroke-width:0.15628;stroke-dasharray:none"><path
             style="fill:none;stroke:#1a1a1a;stroke-width:0.50452;stroke-linecap:round;stroke-linejoin:round;stroke-dasharray:none"
             d="m 244.35076,14.395102 c 0.75166,-0.342652 1.83365,-1.221481 2.68614,-0.476862 1.07293,0.456344 1.61946,-0.0989 2.64766,0.310489 0.73903,0.55632 2.4698,0.908577 2.80272,1.473845 0.81471,0.452115 1.27648,0.833046 1.96401,1.475154 0.89298,0.691423 1.70136,1.394911 2.13954,2.432045 0.39272,0.806629 0.74415,1.65323 0.68877,2.582501 0.29592,1.055942 -0.0769,1.737923 -0.63227,2.120711 -0.19499,0.977259 -1.64235,1.449289 -2.45938,1.413952 -0.77006,0.789676 -1.65992,0.578233 -2.64296,-0.09289 -0.51958,-0.191636 -0.97964,-0.64653 -1.45338,-0.918529"
             id="path1"
             sodipodi:nodetypes="ccccccccccc" /><path
             style="fill:none;stroke:#1a1a1a;stroke-width:0.50452;stroke-linecap:round;stroke-linejoin:round;stroke-dasharray:none"
             d="m 250.09799,24.718694 c -0.3646,-0.183668 -0.59395,-0.453313 -1.06772,-0.556641"
             id="path5"
             sodipodi:nodetypes="cc" /><path
             style="fill:none;stroke:#1a1a1a;stroke-width:0.50452;stroke-linecap:round;stroke-linejoin:round;stroke-dasharray:none"
             d="m 244.52384,22.220573 c 1.01661,0.839655 1.636,3.111765 2.48402,2.624026 0.47429,-0.583873 0.9468,-0.922589 2.08958,-0.671798"
             id="path9"
             sodipodi:nodetypes="ccc" /><path
             style="fill:none;stroke:#1a1a1a;stroke-width:0.50452;stroke-linecap:round;stroke-linejoin:round;stroke-dasharray:none"
             d="m 244.4614,22.837718 c 1.69429,2.659091 2.36872,3.135654 3.54486,2.953654"
             id="path10"
             sodipodi:nodetypes="cc" /><path
             style="fill:none;stroke:#1a1a1a;stroke-width:0.50452;stroke-linecap:round;stroke-linejoin:round;stroke-dasharray:none"
             d="m 248.07249,25.77695 c 0.78475,-0.06635 1.18737,-1.805731 -0.14027,-1.625686"
             id="path11"
             sodipodi:nodetypes="cc" /><path
             style="fill:none;stroke:#1a1a1a;stroke-width:0.50452;stroke-linecap:round;stroke-linejoin:round;stroke-dasharray:none"
             d="m 246.92616,20.00431 c 1.44664,-0.271443 3.08148,0.09528 4.06075,1.252258 0.99321,0.512338 -0.40478,0.87613 -0.44305,1.217904 0.71068,0.617644 2.50952,0.417614 1.96297,-0.84852 -0.50721,-0.879121 -1.46721,-1.335633 -2.26689,-1.904486 -0.79157,-0.516096 -1.7343,-0.740136 -2.67256,-0.611073 -1.09426,0.342373 -2.37429,0.06812 -3.31813,0.754569 -0.87924,0.500037 -0.61074,2.32257 0.5651,1.724262 0.33185,-0.691308 0.82009,-1.661807 1.79261,-1.335466 0.87391,0.311153 1.80246,0.942466 2.19603,1.807283 0.098,0.350782 0.095,0.719352 0.173,1.073993"
             id="path13" /><path
             style="fill:none;stroke:#1a1a1a;stroke-width:0.50452;stroke-linecap:round;stroke-linejoin:round;stroke-dasharray:none"
             d="m 246.96387,20.017601 c 1.02219,0.441543 1.83182,1.239389 2.35121,1.738611 0.0647,0.484944 0.44925,0.493798 0.8813,0.539427"
             id="path14"
             sodipodi:nodetypes="ccc" /><path
             style="fill:none;stroke:#1a1a1a;stroke-width:0.50452;stroke-linecap:round;stroke-linejoin:round;stroke-dasharray:none"
             d="m 250.07933,22.495557 c -0.65009,-0.04915 -0.79397,1.367509 -0.90949,1.11084 -0.0452,-0.181813 -0.087,-0.365005 -0.10907,-0.551308"
             id="path15" /><path
             style="fill:none;stroke:#1a1a1a;stroke-width:0.50452;stroke-linecap:round;stroke-linejoin:round;stroke-dasharray:none"
             d="m 248.41654,21.77616 c -0.31784,-0.438632 -0.79005,-0.66758 -1.32766,-0.626082"
             id="path17" /><path
             style="fill:none;stroke:#1a1a1a;stroke-width:0.50452;stroke-linecap:round;stroke-linejoin:round;stroke-dasharray:none"
             d="m 251.77035,24.38136 c 0.75869,-0.436887 1.72367,-0.490404 2.34774,-1.164756 0.46653,-0.348428 0.40482,-1.064307 0.89161,-1.400552"
             id="path18" /><path
             style="fill:none;stroke:#1a1a1a;stroke-width:0.50452;stroke-linecap:round;stroke-linejoin:round;stroke-dasharray:none"
             d="m 254.27188,22.256893 c -0.0642,-1.018011 -0.33291,-2.099989 -1.3384,-2.585418 -0.93123,-0.625368 -1.87407,-1.227838 -2.90998,-1.675212 -0.92058,-0.438707 -1.94004,-0.773485 -2.96112,-0.480027 -1.00519,-0.365113 -2.0644,0.01069 -3.04542,-0.481647 -0.48727,-0.320816 -0.62668,-0.968517 -0.85524,-1.465824"
             id="path19" /><path
             style="fill:none;stroke:#1a1a1a;stroke-width:0.50452;stroke-linecap:round;stroke-linejoin:round;stroke-dasharray:none"
             d="m 245.21121,17.144401 c -1.03981,-0.480697 -1.89784,-1.627856 -1.75611,-2.802607 l 0.0598,-0.181115 0.0914,-0.143645"
             id="path20" /><path
             style="fill:none;stroke:#1a1a1a;stroke-width:0.50452;stroke-linecap:round;stroke-linejoin:round;stroke-dasharray:none"
             d="m 245.2843,13.869215 c -0.78853,-0.465833 -1.87499,-0.21758 -2.6195,0.15775 -0.98592,0.485414 -0.84543,1.808011 -0.66052,2.715263 0.0373,0.160765 0.0614,0.329339 0.14625,0.474405"
             id="path21"
             sodipodi:nodetypes="cccc" /><path
             style="fill:none;stroke:#1a1a1a;stroke-width:0.50452;stroke-linecap:round;stroke-linejoin:round;stroke-dasharray:none"
             d="m 241.95257,14.822929 c -0.67075,0.08882 -1.48032,0.269634 -1.70244,1.108618 -0.54316,0.507668 -1.29757,1.424506 -0.39928,2.071245 0.44662,0.852696 0.54072,1.892027 1.25088,2.622241 0.20227,0.818533 0.68344,1.314344 1.48862,1.539895"
             id="path22"
             sodipodi:nodetypes="ccccc" /><path
             style="fill:none;stroke:#1a1a1a;stroke-width:0.50452;stroke-linecap:round;stroke-linejoin:round;stroke-dasharray:none"
             d="m 242.31384,19.951753 c -0.3258,-1.110672 0.8136,-1.5529 1.70882,-1.521558 0.56288,-0.05351 1.11391,-0.190701 1.6746,-0.261374"
             id="path23" /><path
             style="fill:none;stroke:#1a1a1a;stroke-width:0.50452;stroke-linecap:round;stroke-linejoin:round;stroke-dasharray:none"
             d="m 246.92153,17.169246 c 0.78121,-0.355998 1.7881,-0.167301 2.34009,-0.972435"
             id="path24" /><path
             style="fill:none;stroke:#1a1a1a;stroke-width:0.50452;stroke-linecap:round;stroke-linejoin:round;stroke-dasharray:none"
             d="m 248.05544,15.747954 c 0.0632,-0.39786 0.46654,-0.609171 0.60303,-0.972453"
             id="path25" /><path
             style="fill:none;stroke:#1a1a1a;stroke-width:0.50452;stroke-linecap:round;stroke-linejoin:round;stroke-dasharray:none"
             d="m 245.93238,16.720416 c -0.0595,-0.588759 0.16682,-1.158913 0.4341,-1.670641"
             id="path26" /><path
             style="fill:none;stroke:#1a1a1a;stroke-width:0.50452;stroke-linecap:round;stroke-linejoin:round;stroke-dasharray:none"
             d="m 245.25686,15.772889 c 0.34151,-0.03411 0.68421,-0.246533 0.84416,-0.52362"
             id="path27" /><path
             style="fill:none;stroke:#1a1a1a;stroke-width:0.50452;stroke-linecap:round;stroke-linejoin:round;stroke-dasharray:none"
             d="m 238.76704,17.992098 c 0.42193,0.427129 0.80131,0.915327 1.08556,1.446222"
             id="path28" /><path
             style="fill:none;stroke:#1a1a1a;stroke-width:0.50452;stroke-linecap:round;stroke-linejoin:round;stroke-dasharray:none"
             d="m 239.49082,19.089236 c 0.11891,0.797343 1.09001,0.904064 1.49782,1.482374 0.22387,0.333572 -0.0152,0.705009 -0.0264,1.060953"
             id="path29" /><path
             style="fill:none;stroke:#1a1a1a;stroke-width:0.50452;stroke-linecap:round;stroke-linejoin:round;stroke-dasharray:none"
             d="m 237.44013,22.131298 c 0.78281,-0.14839 1.19487,-1.235647 2.16985,-0.810023 0.22702,0.04699 0.50314,-0.07766 0.67664,0.136793"
             id="path30" /><path
             style="fill:none;stroke:#1a1a1a;stroke-width:0.50452;stroke-linecap:round;stroke-linejoin:round;stroke-dasharray:none"
             d="m 243.66456,23.15363 c -0.76112,-0.309662 -1.33111,-0.991732 -2.14931,-1.236656 -0.85215,-0.43441 -2.09806,-0.741671 -2.87565,0.0039 -1.05107,0.692348 -1.66337,0.990903 -1.91512,2.10548"
             id="path31"
             sodipodi:nodetypes="cccc" /><path
             style="fill:none;stroke:#1a1a1a;stroke-width:0.50452;stroke-linecap:round;stroke-linejoin:round;stroke-dasharray:none"
             d="m 239.45164,17.103597 c -0.54385,0.437616 -1.3894,0.882835 -1.47138,1.657959 -0.0832,1.015361 -0.92467,0.755635 -1.38745,2.15126 -0.30169,0.71354 -0.25039,1.525126 -0.0631,2.282982 0.16255,0.784968 0.44365,1.800528 1.4633,1.324695 0.57879,0.447743 0.92738,0.384835 1.38929,-0.115941 0.97983,1.325882 1.68331,-0.194179 2.17268,-0.83108 0.13126,-0.0813 0.24502,-0.127778 0.39844,-0.156796"
             id="path32"
             sodipodi:nodetypes="cccccccc" /><path
             style="fill:none;stroke:#1a1a1a;stroke-width:0.50452;stroke-linecap:round;stroke-linejoin:round;stroke-dasharray:none"
             d="m 242.15579,23.384998 c 0.51645,0.507315 1.45618,0.223675 2.07735,1.070667 0.6378,0.658719 2.35017,1.965069 4.1145,2.461971"
             id="path33"
             sodipodi:nodetypes="ccc" /><path
             style="fill:none;stroke:#1a1a1a;stroke-width:0.50452;stroke-linecap:round;stroke-linejoin:round;stroke-dasharray:none"
             d="m 251.40353,25.555524 c 0.30009,0.87792 -0.44502,1.673809 -1.2976,1.749374 -0.80332,0.256504 -1.92594,0.861204 -2.67953,0.212753 -0.89874,-0.649178 -1.07114,-1.228852 -2.56082,-1.403654"
             id="path34"
             sodipodi:nodetypes="cccc" /><path
             style="fill:none;stroke:#1a1a1a;stroke-width:0.50452;stroke-linecap:round;stroke-linejoin:round;stroke-dasharray:none"
             d="m 240.62011,24.78506 c -0.52126,0.508861 -2.14347,0.774273 -2.2663,1.718392 0.45048,0.653693 0.84433,1.689171 1.62972,1.80909 0.46812,0.569208 1.20285,0.816404 1.84083,0.720755"
             id="path35"
             sodipodi:nodetypes="cccc" /><path
             style="fill:none;stroke:#1a1a1a;stroke-width:0.50452;stroke-linecap:round;stroke-linejoin:round;stroke-dasharray:none"
             d="m 241.28996,28.316281 c 0.26656,1.002708 1.50074,1.0446 2.06718,0.347654 0.22481,-0.157017 0.73921,-0.465101 0.57962,-0.758633 -0.34653,-0.637399 -0.22969,-0.878839 -0.17243,-1.084377 0.23522,-0.233946 0.51109,1.167711 1.17157,-0.795291"
             id="path36"
             sodipodi:nodetypes="ccscc" /><path
             style="fill:none;stroke:#1a1a1a;stroke-width:0.50452;stroke-linecap:round;stroke-linejoin:round;stroke-dasharray:none"
             d="m 240.34194,25.277411 c 0.53989,0.582912 0.78183,0.655552 2.06719,0.719476"
             id="path37"
             sodipodi:nodetypes="cc" /><path
             style="fill:none;stroke:#1a1a1a;stroke-width:0.50452;stroke-linecap:round;stroke-linejoin:round;stroke-dasharray:none"
             d="m 242.65317,26.164795 c 0.73916,0.404871 0.40514,0.974817 1.07659,1.137398"
             id="path38"
             sodipodi:nodetypes="cc" /><path
             style="fill:none;stroke:#1a1a1a;stroke-width:0.50452;stroke-linecap:round;stroke-linejoin:round;stroke-dasharray:none"
             d="m 241.25312,23.975229 c 0.57623,-0.430975 1.19765,-0.533905 1.64233,0.166517 0.54912,0.0074 0.74433,0.367059 0.68621,0.899712 0.94278,-0.241091 0.4403,0.920059 1.31769,1.06724"
             id="path39"
             sodipodi:nodetypes="cccc" /><path
             style="fill:none;stroke:#1a1a1a;stroke-width:0.50452;stroke-linecap:round;stroke-linejoin:round;stroke-dasharray:none"
             d="m 250.39261,16.201472 c -0.031,0.403525 -0.0374,0.815291 0.0534,1.212141"
             id="path40" /><path
             style="fill:none;stroke:#1a1a1a;stroke-width:0.50452;stroke-linecap:round;stroke-linejoin:round;stroke-dasharray:none"
             d="m 252.84483,18.267618 c 0.3777,0.45523 0.95771,0.473394 1.4129,0.798934"
             id="path41" /><path
             style="fill:none;stroke:#1a1a1a;stroke-width:0.50452;stroke-linecap:round;stroke-linejoin:round;stroke-dasharray:none"
             d="m 256.56172,21.396694 c -0.006,0.230105 0.028,0.45872 0.0267,0.688716"
             id="path42" /><path
             style="fill:none;stroke:#1a1a1a;stroke-width:0.50452;stroke-linecap:round;stroke-linejoin:round;stroke-dasharray:none"
             d="m 241.68475,23.411424 c -0.25599,0.04676 -0.48356,-0.09607 -0.70879,-0.18899"
             id="path43" /><path
             style="fill:none;stroke:#1a1a1a;stroke-width:0.50452;stroke-linecap:round;stroke-linejoin:round;stroke-dasharray:none"
             d="m 239.35401,23.223716 c 0.14979,0.327854 0.42069,0.555844 0.7683,0.646242"
             id="path44" /><path
             style="fill:none;stroke:#1a1a1a;stroke-width:0.50452;stroke-linecap:round;stroke-linejoin:round;stroke-dasharray:none"
             d="m 253.82973,24.312007 c 0.57011,-0.01618 1.04733,-0.376701 1.51177,-0.629646"
             id="path45" /><path
             style="fill:none;stroke:#1a1a1a;stroke-width:0.50452;stroke-linecap:round;stroke-linejoin:round;stroke-dasharray:none"
             d="m 240.07413,27.132934 c 0.52998,-0.308969 0.93061,-0.400353 1.66052,-0.47995"
             id="path274"
             sodipodi:nodetypes="cc" /><path
             style="fill:none;stroke:#1a1a1a;stroke-width:0.50452;stroke-linecap:round;stroke-linejoin:round;stroke-dasharray:none"
             d="m 249.465,24.66608 c 0.14941,0.168908 0.25262,0.608208 0.57276,0.873878"
             id="path275"
             sodipodi:nodetypes="cc" /></g></g></g></g></svg>
