<?xml version="1.0" encoding="UTF-8" standalone="no"?>
<!-- Created with Inkscape (http://www.inkscape.org/) -->

<svg
   width="88.841988mm"
   height="65.102425mm"
   viewBox="0 0 88.841988 65.102425"
   version="1.1"
   id="svg1"
   inkscape:version="1.3.2 (091e20e, 2023-11-25)"
   sodipodi:docname="right_lateral_inflated.svg"
   xml:space="preserve"
   xmlns:inkscape="http://www.inkscape.org/namespaces/inkscape"
   xmlns:sodipodi="http://sodipodi.sourceforge.net/DTD/sodipodi-0.dtd"
   xmlns="http://www.w3.org/2000/svg"
   xmlns:svg="http://www.w3.org/2000/svg"><sodipodi:namedview
     id="namedview1"
     pagecolor="#ffffff"
     bordercolor="#000000"
     borderopacity="0.25"
     inkscape:showpageshadow="2"
     inkscape:pageopacity="0.0"
     inkscape:pagecheckerboard="0"
     inkscape:deskcolor="#d1d1d1"
     inkscape:document-units="mm"
     inkscape:zoom="1.6144036"
     inkscape:cx="182.42031"
     inkscape:cy="246.53067"
     inkscape:window-width="1728"
     inkscape:window-height="1055"
     inkscape:window-x="0"
     inkscape:window-y="34"
     inkscape:window-maximized="1"
     inkscape:current-layer="g1065-8-9"
     showguides="false" /><defs
     id="defs1" /><g
     inkscape:label="Layer 1"
     inkscape:groupmode="layer"
     id="layer1"
     transform="translate(1.4692591,-0.22245919)"><g
       id="g1067-1-0"
       transform="matrix(2.2827467,0,0,2.2086629,-137.99834,310.89713)"><g
         id="g1066-0-3"
         transform="matrix(-1.2917277,0,0,1.2917277,186.25467,24.53971)"
         style="stroke-width:0.226054;stroke-dasharray:none"><g
           id="g1065-8-9"
           transform="matrix(1.4464692,0,0,1.4464692,-274.77444,-147.32699)"
           style="stroke-width:0.15628;stroke-dasharray:none"><path
             style="fill:none;stroke:#000000;stroke-width:0.5045204;stroke-linecap:round;stroke-linejoin:round;stroke-dasharray:none"
             d="m 250.39822,25.369243 c 0.4115,-0.486073 1.72149,-0.352137 2.63875,-0.290357 0.86142,-0.04418 1.81315,-0.217592 2.60595,-0.559253 0.67096,-0.369854 1.5828,-1.254334 1.79235,-2.023457 0.36628,-0.963068 -0.0847,-1.803311 -0.32368,-2.375404 -0.39568,-0.93424 -1.25279,-1.610296 -1.89705,-2.388693 -0.66212,-0.725961 -1.38381,-1.417435 -2.20897,-1.942331 -0.81649,-0.634061 -1.76803,-1.297422 -2.84591,-1.681903 -1.46992,-0.310229 -2.64873,-0.538445 -4.1866,-0.605599 -1.09625,-0.0398 -2.67396,0.329393 -3.48874,0.759816 -0.7055,0.340619 -1.48667,0.684718 -2.26939,1.623636 -0.62813,0.780177 -1.13858,1.285497 -1.79731,2.044458 -0.66958,0.747322 -1.17467,1.742184 -1.33989,2.313305 -0.17982,0.938013 -0.35484,1.936428 -0.0102,2.913182 0.43847,1.151968 1.57695,1.254651 2.54318,1.488831 0.87544,0.249593 1.80603,0.309051 2.64522,0.60741 1.12227,0.464997 2.24313,0.863677 3.37025,1.31551 0.96602,0.34107 1.38742,0.484708 2.4198,0.710133 0.8971,0.08639 2.07336,0.308299 2.43605,-0.508652 0.25242,-1.103785 -0.20466,-1.967676 -1.01496,-2.6933 -0.94017,-0.90057 -1.75956,-1.573453 -2.70963,-2.308635 -0.97474,-0.649568 -2.18003,-0.899005 -2.81694,-2.124936"
             id="path3"
             sodipodi:nodetypes="cccccccccccccccccccccc" /><path
             style="fill:none;stroke:#000000;stroke-width:0.5045204;stroke-linecap:round;stroke-linejoin:round;stroke-dasharray:none"
             d="m 253.09788,23.213061 c -0.40588,-1.058395 -1.53706,-1.309338 -2.67422,-1.351602 -1.3268,-0.25523 -1.77315,-0.918611 -2.67786,-1.10306 -0.82264,-0.264347 -1.89191,-0.825588 -2.77784,-0.709055"
             id="path4"
             sodipodi:nodetypes="cccc" /><path
             style="fill:none;stroke:#000000;stroke-width:0.5045204;stroke-linecap:round;stroke-linejoin:round;stroke-dasharray:none"
             d="m 247.41322,24.844422 c -1.24457,-0.932099 -2.92626,-1.106184 -4.05169,-2.226763 -0.82345,-0.628471 -1.8871,-1.873481 -1.62786,-3.127506"
             id="path5"
             sodipodi:nodetypes="ccc" /><path
             style="fill:none;stroke:#000000;stroke-width:0.5045204;stroke-linecap:round;stroke-linejoin:round;stroke-dasharray:none"
             d="m 243.99066,16.242559 c -0.79704,0.042 -1.28545,0.174956 -2.5232,0.06756 -0.92588,0.27363 -1.26144,0.393228 -1.88886,0.914434 -0.6701,0.61321 -1.82096,2.053228 -1.97971,3.068309"
             id="path6"
             sodipodi:nodetypes="cccc" /><path
             style="fill:none;stroke:#000000;stroke-width:0.5045204;stroke-linecap:round;stroke-linejoin:round;stroke-dasharray:none"
             d="m 245.8079,14.232963 c 0.84505,1.189262 2.17365,2.91505 2.42958,4.413801"
             id="path8"
             sodipodi:nodetypes="cc" /><path
             style="fill:none;stroke:#000000;stroke-width:0.5045204;stroke-linecap:round;stroke-linejoin:round;stroke-dasharray:none"
             d="m 256.8298,21.50282 c -0.6366,-1.781066 -2.43514,-3.629497 -3.05984,-4.133191 -0.62762,-0.640018 -1.57791,-1.237071 -2.08626,-1.509491 -0.37696,-0.186019 -1.62634,-0.337018 -2.43905,-0.36939"
             id="path9"
             sodipodi:nodetypes="cccc" /><path
             style="fill:none;stroke:#000000;stroke-width:0.5045204;stroke-linecap:round;stroke-linejoin:round;stroke-dasharray:none"
             d="m 247.66899,14.039734 c 0.34304,0.58142 0.84965,1.151971 1.3792,1.573105"
             id="path10" /><path
             style="fill:none;stroke:#000000;stroke-width:0.5045204;stroke-linecap:round;stroke-linejoin:round;stroke-dasharray:none"
             d="m 250.54312,17.959984 c 0.30927,0.973838 0.41306,0.825157 0.27443,1.887213"
             id="path11"
             sodipodi:nodetypes="cc" /><path
             style="fill:none;stroke:#000000;stroke-width:0.5045204;stroke-linecap:round;stroke-linejoin:round;stroke-dasharray:none"
             d="m 254.57231,20.941811 c -0.67488,-0.860375 -2.6017,-2.662509 -3.70466,-2.993211"
             id="path14"
             sodipodi:nodetypes="cc" /><path
             style="fill:none;stroke:#000000;stroke-width:0.5045204;stroke-linecap:round;stroke-linejoin:round;stroke-dasharray:none"
             d="m 244.71695,14.545423 c -0.58378,0.167584 -0.80547,1.498013 -1.2285,0.36791 -0.17526,-0.244623 -0.45865,-0.347387 -0.72247,-0.46395"
             id="path15" /><path
             style="fill:none;stroke:#000000;stroke-width:0.5045204;stroke-linecap:round;stroke-linejoin:round;stroke-dasharray:none"
             d="m 240.65973,20.834016 c -0.30539,0.888876 -0.5016,2.116411 0.39322,2.739472 l 0.0868,0.09684 0.0778,0.10884"
             id="path16" /><path
             style="fill:none;stroke:#000000;stroke-width:0.5045204;stroke-linecap:round;stroke-linejoin:round;stroke-dasharray:none"
             d="m 247.65417,26.234765 c -0.91299,-0.241677 -1.8238,-0.609981 -2.70117,-0.9634 l -0.0862,0.003"
             id="path17" /><path
             style="fill:none;stroke:#000000;stroke-width:0.5045204;stroke-linecap:round;stroke-linejoin:round;stroke-dasharray:none"
             d="m 238.54794,21.624965 c -0.36656,0.367019 -0.39231,0.935247 -0.7434,1.31251"
             id="path18" /><path
             style="fill:none;stroke:#000000;stroke-width:0.5045204;stroke-linecap:round;stroke-linejoin:round;stroke-dasharray:none"
             d="m 255.15779,24.043304 c -0.57075,0.366475 -1.24027,0.469007 -1.99821,0.611165"
             id="path19"
             sodipodi:nodetypes="cc" /><path
             style="fill:none;stroke:#000000;stroke-width:0.5045204;stroke-linecap:round;stroke-linejoin:round;stroke-dasharray:none"
             d="m 240.18537,24.76923 c -0.54711,0.494478 -1.68321,1.015274 -0.69777,1.787156 0.5444,0.470168 1.25329,0.73882 1.91828,0.989258"
             id="path21" /><path
             style="fill:none;stroke:#000000;stroke-width:0.5045204;stroke-linecap:round;stroke-linejoin:round;stroke-dasharray:none"
             d="m 243.25941,26.491422 c -1.2182,-0.398841 -2.4465,-0.862244 -3.7353,-0.984224 l -0.12787,0.01357 -0.11628,0.03531"
             id="path22" /><path
             style="fill:none;stroke:#000000;stroke-width:0.5045204;stroke-linecap:round;stroke-linejoin:round;stroke-dasharray:none"
             d="m 239.17477,25.629541 c -1.05875,0.52272 -0.58256,1.711692 0.18206,2.177231 0.70635,0.533157 1.62126,0.937384 2.52362,0.778125"
             id="path23"
             sodipodi:nodetypes="ccc" /><path
             style="fill:none;stroke:#000000;stroke-width:0.5045204;stroke-linecap:round;stroke-linejoin:round;stroke-dasharray:none"
             d="m 240.4583,28.376925 c 0.374,0.726566 1.41714,0.617803 2.10605,0.493485 0.28006,-0.06234 0.51771,-0.236406 0.78145,-0.33015"
             id="path24" /><path
             style="fill:none;stroke:#000000;stroke-width:0.5045204;stroke-linecap:round;stroke-linejoin:round;stroke-dasharray:none"
             d="m 241.96659,28.955938 c 0.74597,0.507712 1.64107,-0.07871 2.14652,-0.654752 0.21997,-0.24277 0.35836,-0.661816 0.26144,-0.8334"
             id="path25"
             sodipodi:nodetypes="ccc" /><path
             style="fill:none;stroke:#000000;stroke-width:0.5045204;stroke-linecap:round;stroke-linejoin:round;stroke-dasharray:none"
             d="m 245.11245,26.402343 c -0.34298,0.13953 -0.48401,0.624259 -0.61871,0.513244 -0.84442,-0.695927 -0.87675,0.102735 -0.0961,0.571263"
             id="path26"
             sodipodi:nodetypes="csc" /><path
             style="fill:none;stroke:#000000;stroke-width:0.5045204;stroke-linecap:round;stroke-linejoin:round;stroke-dasharray:none"
             d="m 244.14595,26.701403 c -0.10552,-0.08803 -0.69354,-0.340698 -1.13072,-0.536609"
             id="path27"
             sodipodi:nodetypes="cc" /><path
             style="fill:none;stroke:#000000;stroke-width:0.5045204;stroke-linecap:round;stroke-linejoin:round;stroke-dasharray:none"
             d="m 243.99872,27.19274 c -0.32875,0.304544 -0.76332,0.720765 -1.25651,0.62004"
             id="path28"
             sodipodi:nodetypes="cc" /><path
             style="fill:none;stroke:#000000;stroke-width:0.5045204;stroke-linecap:round;stroke-linejoin:round;stroke-dasharray:none"
             d="m 252.70092,23.540493 c -0.57607,0.657393 -1.13799,1.110086 -1.76602,1.241962"
             id="path29"
             sodipodi:nodetypes="cc" /></g></g></g></g></svg>
