<?xml version="1.0" encoding="UTF-8" standalone="no"?>
<!-- Created with Inkscape (http://www.inkscape.org/) -->

<svg
   width="88.401314mm"
   height="64.825348mm"
   viewBox="0 0 88.401314 64.825348"
   version="1.1"
   id="svg1"
   inkscape:version="1.3.2 (091e20e, 2023-11-25)"
   sodipodi:docname="right_lateral.svg"
   xml:space="preserve"
   xmlns:inkscape="http://www.inkscape.org/namespaces/inkscape"
   xmlns:sodipodi="http://sodipodi.sourceforge.net/DTD/sodipodi-0.dtd"
   xmlns="http://www.w3.org/2000/svg"
   xmlns:svg="http://www.w3.org/2000/svg"><sodipodi:namedview
     id="namedview1"
     pagecolor="#ffffff"
     bordercolor="#000000"
     borderopacity="0.25"
     inkscape:showpageshadow="2"
     inkscape:pageopacity="0.0"
     inkscape:pagecheckerboard="0"
     inkscape:deskcolor="#d1d1d1"
     inkscape:document-units="mm"
     inkscape:zoom="2.0540132"
     inkscape:cx="170.1547"
     inkscape:cy="74.00147"
     inkscape:window-width="1728"
     inkscape:window-height="1055"
     inkscape:window-x="0"
     inkscape:window-y="34"
     inkscape:window-maximized="1"
     inkscape:current-layer="g1065-8-9"
     showguides="false" /><defs
     id="defs1" /><g
     inkscape:label="Layer 1"
     inkscape:groupmode="layer"
     id="layer1"
     transform="translate(0.90421068,-0.32733061)"><g
       id="g1067-1-0"
       transform="matrix(2.2827467,0,0,2.2086629,-137.99834,310.89713)"><g
         id="g1066-0-3"
         transform="matrix(-1.2917277,0,0,1.2917277,186.25467,24.53971)"
         style="stroke-width:0.226054;stroke-dasharray:none"><g
           id="g1065-8-9"
           transform="matrix(1.4464692,0,0,1.4464692,-274.77444,-147.32699)"
           style="stroke-width:0.15628;stroke-dasharray:none"><path
             style="fill:none;fill-opacity:1;stroke:#000000;stroke-width:0.5045204;stroke-linecap:round;stroke-linejoin:round;stroke-dasharray:none;stroke-opacity:1"
             d="m 246.54025,14.118152 c -0.77994,-0.0059 -0.50992,-0.05408 -2.66043,0.5931 -0.81964,0.389003 -1.75436,0.484467 -2.45455,1.162071 -0.71286,0.04764 -1.0275,0.607941 -1.47876,0.972555 -0.3379,0.273014 -0.93059,0.584948 -1.03834,1.212113 -0.73216,0.432434 -0.94931,1.038777 -1.28975,2.193383 -0.86117,0.336648 -0.59642,1.099163 -0.63476,1.550126 -0.29271,0.739219 0.19603,1.670367 0.65731,2.234868 0.11647,0.576216 0.83902,0.885324 1.32886,1.149025 0.29407,0.158311 0.42327,0.358219 0.5142,0.427229 0.80844,0.442817 2.20629,-0.0096 2.9516,-0.0068 0.15758,-0.293561 -0.0959,-1.416028 1.01379,-2.081746 0.55745,-0.722597 1.51939,-1.083744 2.49644,-1.559148 0.52781,-0.325112 1.75722,-0.700344 2.44226,-0.865409 0.28491,-0.06865 0.34191,-0.504318 0.42192,-0.653393 -0.1803,-0.0627 -0.48714,-0.142369 -0.68173,0.04644 -0.26689,0.25896 -0.58273,0.641521 -1.15144,0.101004 -0.0899,0.734068 -1.31115,1.360092 -2.10272,1.793305 -0.51492,0.335346 -1.51801,0.516749 -1.72585,-0.205121 -0.0716,-0.248797 -0.29889,-0.2856 -0.51893,-0.491673 -0.38617,0.118132 -1.2086,0.811639 -0.5162,1.359991 0.0903,0.360108 0.46065,0.66293 0.31179,1.054233"
             id="path999-1-5"
             sodipodi:nodetypes="cccsccccsccccscsccsccc" /><path
             style="fill:none;fill-opacity:1;stroke:#000000;stroke-width:0.5045204;stroke-linecap:round;stroke-linejoin:round;stroke-dasharray:none;stroke-opacity:1"
             d="m 242.08025,22.781834 c 0.26736,0.236775 0.64283,0.428709 0.77112,0.835727"
             id="path1000-4-3"
             sodipodi:nodetypes="cc" /><path
             style="fill:none;fill-opacity:1;stroke:#000000;stroke-width:0.5045204;stroke-linecap:round;stroke-linejoin:round;stroke-dasharray:none;stroke-opacity:1"
             d="m 241.80475,24.404767 c -0.94598,-0.08067 -2.11777,0.04925 -2.91624,-0.54567"
             id="path1001-8-1"
             sodipodi:nodetypes="cc" /><path
             style="fill:none;fill-opacity:1;stroke:#000000;stroke-width:0.5045204;stroke-linecap:round;stroke-linejoin:round;stroke-dasharray:none;stroke-opacity:1"
             d="m 241.15172,24.583677 c 0.29311,0.227888 0.62304,0.3957 0.95717,0.554623"
             id="path1002-8-1" /><path
             style="fill:none;fill-opacity:1;stroke:#000000;stroke-width:0.5045204;stroke-linecap:round;stroke-linejoin:round;stroke-dasharray:none;stroke-opacity:1"
             d="m 242.51461,25.211194 c -0.11175,0.732575 -0.21614,2.005213 0.67974,2.281659 1.28766,-0.118447 1.70686,0.568855 2.66581,0.323087 0.8932,-0.426397 1.76899,-1.433034 2.94159,-1.597968 0.5254,-0.45414 1.29415,-0.559878 1.96681,-0.871228 1.03874,-0.247361 2.24559,-1.085448 3.10649,-0.707861 0.24145,0.108186 1.021,-0.340858 1.35614,-0.324976"
             id="path1004-5-6"
             sodipodi:nodetypes="ccccccc" /><path
             style="fill:none;fill-opacity:1;stroke:#000000;stroke-width:0.5045204;stroke-linecap:round;stroke-linejoin:round;stroke-dasharray:none;stroke-opacity:1"
             d="m 253.23839,23.170852 c 0.80215,0.399743 1.28205,0.708516 2.03938,1.144294 0.82514,-0.263285 1.34892,-0.05913 1.63682,-0.253358 0.34455,-0.232446 0.45808,-0.932205 0.4929,-1.905155 -0.0443,-1.203768 -0.48037,-1.387988 -1.31092,-1.98607 -0.58555,-0.969015 0.41768,-2.336854 -1.79371,-3.223189 -0.0709,-0.482644 0.009,-0.721395 -1.0376,-1.246369 -0.0428,-0.820042 -1.0367,-0.950043 -2.07013,-0.929843 -0.55601,0.0019 -1.04039,0.308961 -1.09494,0.824014"
             id="path1005-7-9"
             sodipodi:nodetypes="ccscccccc" /><path
             style="fill:none;fill-opacity:1;stroke:#000000;stroke-width:0.5045204;stroke-linecap:round;stroke-linejoin:round;stroke-dasharray:none;stroke-opacity:1"
             d="m 251.36994,14.767259 c -0.43609,-0.978713 -1.16528,-1.185253 -1.99842,-1.187519 -0.65336,0.0083 -0.82024,0.491751 -0.85675,0.539263 -0.19868,-0.551846 -1.51733,-0.395137 -2.22551,0.217464"
             id="path1006-9-1"
             sodipodi:nodetypes="cccc" /><path
             style="fill:none;fill-opacity:1;stroke:#000000;stroke-width:0.5045204;stroke-linecap:round;stroke-linejoin:round;stroke-dasharray:none;stroke-opacity:1"
             d="m 251.55945,25.14012 c 0.84751,-0.155179 0.95513,-1.144703 1.34667,-1.730745 0.0488,-0.133031 0.18557,-0.175028 0.30216,-0.224629"
             id="path1007-8-90" /><path
             style="fill:none;fill-opacity:1;stroke:#000000;stroke-width:0.5045204;stroke-linecap:round;stroke-linejoin:round;stroke-dasharray:none;stroke-opacity:1"
             d="m 252.36241,22.513505 c 0.14003,-0.265163 0.47318,-0.220365 0.52087,-0.527434 0.0241,-0.154958 -0.10064,-0.280354 -0.55504,-0.471308 -0.26805,-0.112642 -0.0564,-1.136935 0.65317,-1.641928"
             id="path1008-4-6"
             sodipodi:nodetypes="cssc" /><path
             style="fill:none;fill-opacity:1;stroke:#000000;stroke-width:0.5045204;stroke-linecap:round;stroke-linejoin:round;stroke-dasharray:none;stroke-opacity:1"
             d="m 256.23405,23.278255 c -0.77476,-1.143941 -0.94541,-1.299712 -1.61753,-2.121678"
             id="path1010-8-7"
             sodipodi:nodetypes="cc" /><path
             style="fill:none;fill-opacity:1;stroke:#000000;stroke-width:0.5045204;stroke-linecap:round;stroke-linejoin:round;stroke-dasharray:none;stroke-opacity:1"
             d="m 255.74633,20.786943 c -0.61321,-0.169871 -0.13248,-1.191902 -0.49502,-1.721736 -0.16733,-1.196002 -2.12369,-3.301284 -2.86082,-2.152949 -1.00402,-0.178667 -1.19725,0.131866 -1.7423,0.875359 -0.16648,-0.524807 0.0993,-0.755537 -1.09594,-1.292907 -2.18786,0.280954 -1.67866,1.470864 -1.67284,1.95534"
             id="path1011-8-3"
             sodipodi:nodetypes="cccccc" /><path
             style="fill:none;fill-opacity:1;stroke:#000000;stroke-width:0.5045204;stroke-linecap:round;stroke-linejoin:round;stroke-dasharray:none;stroke-opacity:1"
             d="m 253.24605,17.75275 c 0.0113,0.982298 -0.93096,1.560373 -1.21678,2.33696 0.0806,0.686048 -0.77901,1.054047 -1.28432,1.284363"
             id="path1012-9-8" /><path
             style="fill:none;fill-opacity:1;stroke:#000000;stroke-width:0.5045204;stroke-linecap:round;stroke-linejoin:round;stroke-dasharray:none;stroke-opacity:1"
             d="m 251.66444,19.675653 c 0.21548,-0.76673 -0.30749,-1.236018 -0.4664,-1.91239"
             id="path1013-4-70" /><path
             style="fill:none;fill-opacity:1;stroke:#000000;stroke-width:0.5045204;stroke-linecap:round;stroke-linejoin:round;stroke-dasharray:none;stroke-opacity:1"
             d="m 254.01555,18.889032 c -0.18018,0.216536 -0.42785,0.384839 -0.51638,0.663119"
             id="path1014-7-3" /><path
             style="fill:none;fill-opacity:1;stroke:#000000;stroke-width:0.5045204;stroke-linecap:round;stroke-linejoin:round;stroke-dasharray:none;stroke-opacity:1"
             d="m 247.20283,23.665351 c -1.03222,-0.01577 -1.86714,1.028088 -2.29363,1.504264 -0.72588,0.05467 -1.04684,0.675138 -1.24294,0.747938"
             id="path1015-0-6"
             sodipodi:nodetypes="ccc" /><path
             style="fill:none;fill-opacity:1;stroke:#000000;stroke-width:0.5045204;stroke-linecap:round;stroke-linejoin:round;stroke-dasharray:none;stroke-opacity:1"
             d="m 250.97978,21.320411 c -0.0411,0.434123 -0.62951,0.691546 -0.99288,0.798383"
             id="path1016-4-9" /><path
             style="fill:none;fill-opacity:1;stroke:#000000;stroke-width:0.5045204;stroke-linecap:round;stroke-linejoin:round;stroke-dasharray:none;stroke-opacity:1"
             d="m 250.21637,22.115306 c -1.08497,1.083671 -2.09544,0.918997 -3.00171,1.562051"
             id="path1017-0-1"
             sodipodi:nodetypes="cc" /><path
             style="fill:none;fill-opacity:1;stroke:#000000;stroke-width:0.5045204;stroke-linecap:round;stroke-linejoin:round;stroke-dasharray:none;stroke-opacity:1"
             d="m 248.87272,20.396881 c 0.61218,-0.580646 0.62209,-1.414618 0.30672,-1.957499"
             id="path1018-6-4"
             sodipodi:nodetypes="cc" /><path
             style="fill:none;fill-opacity:1;stroke:#000000;stroke-width:0.5045204;stroke-linecap:round;stroke-linejoin:round;stroke-dasharray:none;stroke-opacity:1"
             d="m 244.64081,26.838702 c 0.76292,-0.15375 1.43623,-0.627141 2.01598,-1.122277 0.54412,-0.03049 0.30307,-0.298237 1.3132,-0.73869 0.60138,-1.085103 1.8024,0.101081 2.24389,-0.701114 0.0787,-0.101566 0.12392,-0.24141 0.25183,-0.295624"
             id="path1024-2-2"
             sodipodi:nodetypes="ccccc" /><path
             style="fill:none;fill-opacity:1;stroke:#000000;stroke-width:0.5045204;stroke-linecap:round;stroke-linejoin:round;stroke-dasharray:none;stroke-opacity:1"
             d="m 252.37971,22.50916 c -0.35356,0.199337 -1.13705,0.895634 -1.53811,0.952844"
             id="path1026-6-0"
             sodipodi:nodetypes="cc" /><path
             style="fill:none;fill-opacity:1;stroke:#000000;stroke-width:0.5045204;stroke-linecap:round;stroke-linejoin:round;stroke-dasharray:none;stroke-opacity:1"
             d="m 249.58779,16.220065 c 5.8e-4,-0.470962 -0.17768,-1.668863 -0.5937,-1.935955"
             id="path1027-7-4"
             sodipodi:nodetypes="cc" /><path
             style="fill:none;fill-opacity:1;stroke:#000000;stroke-width:0.5045204;stroke-linecap:round;stroke-linejoin:round;stroke-dasharray:none;stroke-opacity:1"
             d="m 245.8851,20.624209 c -0.0466,-0.850687 -0.25473,-1.796583 0.32631,-2.532406 0.1535,-0.731133 0.31844,-1.401602 0.60056,-1.944443 0.12996,-1.048632 1.84129,-0.852103 1.73569,-1.74885"
             id="path1033-0-0"
             sodipodi:nodetypes="cccc" /><path
             style="fill:none;fill-opacity:1;stroke:#000000;stroke-width:0.5045204;stroke-linecap:round;stroke-linejoin:round;stroke-dasharray:none;stroke-opacity:1"
             d="m 246.63818,14.685255 c -1.30301,0.855261 -0.77383,1.2156 -1.32954,1.712209"
             id="path1035-7-1"
             sodipodi:nodetypes="cc" /><path
             style="fill:none;fill-opacity:1;stroke:#000000;stroke-width:0.5045204;stroke-linecap:round;stroke-linejoin:round;stroke-dasharray:none;stroke-opacity:1"
             d="m 245.36982,16.939142 c -0.42093,0.01366 -0.0335,-0.430829 -0.45432,-0.430131"
             id="path1037-7-2" /><path
             style="fill:none;fill-opacity:1;stroke:#000000;stroke-width:0.5045204;stroke-linecap:round;stroke-linejoin:round;stroke-dasharray:none;stroke-opacity:1"
             d="m 245.18586,16.456921 c -0.21214,-0.974962 -1.48273,-1.118995 -2.04355,-0.332914 -0.60747,0.66453 -1.62902,0.191649 -1.76786,1.367979 -0.27015,0.153512 -0.0376,0.343709 -0.006,0.839636"
             id="path1038-5-2"
             sodipodi:nodetypes="cccc" /><path
             style="fill:none;fill-opacity:1;stroke:#000000;stroke-width:0.5045204;stroke-linecap:round;stroke-linejoin:round;stroke-dasharray:none;stroke-opacity:1"
             d="m 244.54496,16.471398 c -0.20465,0.357797 -0.30478,0.94303 -0.0579,1.295695"
             id="path1039-3-2" /><path
             style="fill:none;fill-opacity:1;stroke:#000000;stroke-width:0.5045204;stroke-linecap:round;stroke-linejoin:round;stroke-dasharray:none;stroke-opacity:1"
             d="m 245.03718,17.593368 c -0.21011,0.727537 -1.9677,0.873659 -1.13197,2.285403 -0.009,0.744019 0.2081,0.947228 0.21992,1.688544"
             id="path1040-9-4"
             sodipodi:nodetypes="ccc" /><path
             style="fill:none;fill-opacity:1;stroke:#000000;stroke-width:0.5045204;stroke-linecap:round;stroke-linejoin:round;stroke-dasharray:none;stroke-opacity:1"
             d="m 243.89794,19.883483 c -0.57318,-0.429204 -1.32978,0.122414 -1.99288,-0.01026 -0.0539,0.230849 -0.44918,0.618485 -0.53138,0.842225"
             id="path1042-4-7"
             sodipodi:nodetypes="ccc" /><path
             style="fill:none;fill-opacity:1;stroke:#000000;stroke-width:0.5045204;stroke-linecap:round;stroke-linejoin:round;stroke-dasharray:none;stroke-opacity:1"
             d="m 241.34722,20.723049 c -0.47908,0.492378 -1.63071,1.183789 -1.1333,1.927411 l 0.0433,0.05376 0.0213,0.08569"
             id="path1043-9-7" /><path
             style="fill:none;fill-opacity:1;stroke:#000000;stroke-width:0.5045204;stroke-linecap:round;stroke-linejoin:round;stroke-dasharray:none;stroke-opacity:1"
             d="m 241.79347,22.425864 c -0.1228,0.371908 -0.49909,0.608692 -0.55193,0.998202"
             id="path1044-1-2" /><path
             style="fill:none;fill-opacity:1;stroke:#000000;stroke-width:0.5045204;stroke-linecap:round;stroke-linejoin:round;stroke-dasharray:none;stroke-opacity:1"
             d="m 243.64896,18.961515 c -0.15613,-0.207993 -0.42323,-0.282406 -0.57544,-0.493229"
             id="path1047-8-0" /><path
             style="fill:none;fill-opacity:1;stroke:#000000;stroke-width:0.5045204;stroke-linecap:round;stroke-linejoin:round;stroke-dasharray:none;stroke-opacity:1"
             d="m 241.46423,18.486478 c -0.64516,-0.256838 -0.593,0.568048 -1.78429,0.846803 -0.32158,0.234362 -1.37434,1.039153 -1.15112,1.965204 0.44081,0.625771 -0.88097,1.280804 -0.30537,1.996404"
             id="path1050-9-6"
             sodipodi:nodetypes="cccc" /><path
             style="fill:none;fill-opacity:1;stroke:#000000;stroke-width:0.5045204;stroke-linecap:round;stroke-linejoin:round;stroke-dasharray:none;stroke-opacity:1"
             d="m 248.87386,26.200201 c 0.58914,0.859605 1.1469,0.425956 1.30428,0.689145 0.0956,0.261 -0.77923,-0.06477 -0.63479,0.278903 0.21169,0.503684 0.25757,0.666014 0.81599,1.281477 0.76578,0.473079 2.41565,0.422486 3.56396,-0.423555 0.61345,-0.416682 1.4138,-0.906737 1.25138,-1.752816 -0.0465,-1.179886 -1.11326,-1.194184 -1.2708,-1.602787"
             id="path1057-6-44"
             sodipodi:nodetypes="ccscccc" /><path
             style="fill:none;fill-opacity:1;stroke:#000000;stroke-width:0.5045204;stroke-linecap:round;stroke-linejoin:round;stroke-dasharray:none;stroke-opacity:1"
             d="m 250.11416,26.795807 c 0.377,-1.056177 1.28289,-0.991199 1.97216,-1.0847 0.7572,-0.06818 1.46192,-0.422148 2.2313,-0.340644 h 0.0242"
             id="path1058-1-8"
             sodipodi:nodetypes="cccc" /><path
             style="fill:none;fill-opacity:1;stroke:#000000;stroke-width:0.5045204;stroke-linecap:round;stroke-linejoin:round;stroke-dasharray:none;stroke-opacity:1"
             d="m 250.17467,26.869141 c -0.0599,0.567403 1.82661,0.797474 2.33321,0.561949 0.80621,-0.276718 1.81237,-0.42697 2.33261,-1.682308"
             id="path1059-9-0"
             sodipodi:nodetypes="ccc" /><path
             style="fill:none;fill-opacity:1;stroke:#000000;stroke-width:0.5045204;stroke-linecap:round;stroke-linejoin:round;stroke-dasharray:none;stroke-opacity:1"
             d="m 255.1484,26.657663 c -0.35349,0.194808 -0.70362,0.163243 -1.06791,0.329069"
             id="path1060-6-1"
             sodipodi:nodetypes="cc" /><path
             style="fill:none;fill-opacity:1;stroke:#000000;stroke-width:0.5045204;stroke-linecap:round;stroke-linejoin:round;stroke-dasharray:none;stroke-opacity:1"
             d="m 250.13277,26.901281 c 0.93524,-0.481001 2.04438,-0.308717 2.99185,-0.760726 0.40187,-0.07576 0.78459,-0.193531 1.17525,-0.3134"
             id="path1061-7-5" /><path
             style="fill:none;fill-opacity:1;stroke:#000000;stroke-width:0.5045204;stroke-linecap:round;stroke-linejoin:round;stroke-dasharray:none;stroke-opacity:1"
             d="m 250.22568,27.582192 c 0.64782,0.744101 1.69395,0.953682 2.64822,0.814837 0.15197,-0.01039 0.30352,-0.02642 0.45443,-0.04701"
             id="path1062-8-1" /><path
             style="fill:none;fill-opacity:1;stroke:#000000;stroke-width:0.5045204;stroke-linecap:round;stroke-linejoin:round;stroke-dasharray:none;stroke-opacity:1"
             d="m 247.29344,23.050252 c 2.90023,-0.48261 2.57779,-1.846826 3.6764,-3.309401"
             id="path1"
             sodipodi:nodetypes="cc" /><path
             style="fill:none;fill-opacity:1;stroke:#000000;stroke-width:0.5045204;stroke-linecap:round;stroke-linejoin:round;stroke-dasharray:none;stroke-opacity:1"
             d="m 244.78666,14.722774 c -0.38942,-0.0024 -1.69191,0.815483 -2.30647,1.042104 -0.45679,0.168442 -0.86019,0.205375 -1.19083,0.452826 -0.43117,0.322677 -0.75906,0.865997 -1.12853,1.126763 -0.54777,0.386601 -1.12912,0.667324 -0.99265,1.161509"
             id="path2"
             sodipodi:nodetypes="csssc" /><path
             style="fill:none;fill-opacity:1;stroke:#000000;stroke-width:0.5045204;stroke-linecap:round;stroke-linejoin:round;stroke-dasharray:none;stroke-opacity:1"
             d="m 240.32151,18.402652 c -0.38942,-0.0024 -0.67742,0.127917 -1.3288,0.167379 -0.28788,0.01744 -0.71463,0.616606 -0.64861,1.129111 0.0475,0.369091 -0.26095,-0.03566 -0.44196,0.30531 -0.26661,0.502202 -0.46144,1.705083 -0.50884,1.883884"
             id="path3"
             sodipodi:nodetypes="csssc" /></g></g></g></g></svg>
