<?xml version="1.0" encoding="UTF-8" standalone="no"?>
<!-- Created with Inkscape (http://www.inkscape.org/) -->

<svg
   width="88.841988mm"
   height="65.102425mm"
   viewBox="0 0 88.841988 65.102425"
   version="1.1"
   id="svg1"
   inkscape:version="1.3.2 (091e20e, 2023-11-25)"
   sodipodi:docname="left_lateral.svg"
   xml:space="preserve"
   xmlns:inkscape="http://www.inkscape.org/namespaces/inkscape"
   xmlns:sodipodi="http://sodipodi.sourceforge.net/DTD/sodipodi-0.dtd"
   xmlns="http://www.w3.org/2000/svg"
   xmlns:svg="http://www.w3.org/2000/svg"><sodipodi:namedview
     id="namedview1"
     pagecolor="#ffffff"
     bordercolor="#000000"
     borderopacity="0.25"
     inkscape:showpageshadow="2"
     inkscape:pageopacity="0.0"
     inkscape:pagecheckerboard="0"
     inkscape:deskcolor="#d1d1d1"
     inkscape:document-units="mm"
     inkscape:zoom="1.7111405"
     inkscape:cx="228.79477"
     inkscape:cy="140.84173"
     inkscape:window-width="1728"
     inkscape:window-height="1055"
     inkscape:window-x="0"
     inkscape:window-y="34"
     inkscape:window-maximized="1"
     inkscape:current-layer="g1065-8-9"
     showguides="false" /><defs
     id="defs1" /><g
     inkscape:label="Layer 1"
     inkscape:groupmode="layer"
     id="layer1"
     transform="translate(1.4692591,-0.22245919)"><g
       id="g1067-1-0"
       transform="matrix(2.2827467,0,0,2.2086629,-137.99834,310.89713)"><g
         id="g1066-0-3"
         transform="matrix(-1.2917277,0,0,1.2917277,186.25467,24.53971)"
         style="stroke-width:0.226054;stroke-dasharray:none"><g
           id="g1065-8-9"
           transform="matrix(1.4464692,0,0,1.4464692,-274.77444,-147.32699)"
           style="stroke-width:0.15628;stroke-dasharray:none"><g
             id="g1"
             transform="translate(-1.4468641,-18.857482)"
             style="stroke-width:0.5046;stroke-dasharray:none"><path
               style="fill:none;fill-opacity:1;stroke:#000000;stroke-width:0.5046;stroke-linecap:round;stroke-linejoin:round;stroke-dasharray:none;stroke-opacity:1"
               d="m 249.23722,32.646673 c 0.84909,0.0031 2.02846,-0.373365 2.55071,0.220085 0.84218,0.375116 1.83474,0.596783 2.40995,1.42828 1.03985,0.336358 1.71891,1.341964 2.49762,2.02962 0.67066,0.654236 1.25958,1.346343 1.63548,2.243041 0.94816,1.800263 0.49202,1.708032 0.61511,2.589438 -0.0146,1.461136 -0.68303,1.507779 -1.07101,1.963995 0.0884,0.91477 -2.4502,0.484566 -3.08919,1.246206 l -2.54427,-0.667968"
               id="path999-1-5"
               sodipodi:nodetypes="ccccccccc" /><path
               style="fill:none;fill-opacity:1;stroke:#000000;stroke-width:0.5046;stroke-linecap:round;stroke-linejoin:round;stroke-dasharray:none;stroke-opacity:1"
               d="m 253.05099,40.856584 c -0.28522,0.01096 -1.07759,-0.48156 -1.29108,-0.446607"
               id="path1000-4-3"
               sodipodi:nodetypes="cc" /><path
               style="fill:none;fill-opacity:1;stroke:#000000;stroke-width:0.5046;stroke-linecap:round;stroke-linejoin:round;stroke-dasharray:none;stroke-opacity:1"
               d="m 253.8184,43.033928 c 0.97583,0.320374 2.1222,0.108822 2.91624,-0.54567"
               id="path1001-8-1" /><path
               style="fill:none;fill-opacity:1;stroke:#000000;stroke-width:0.5046;stroke-linecap:round;stroke-linejoin:round;stroke-dasharray:none;stroke-opacity:1"
               d="m 254.47143,43.212838 c -0.29311,0.227888 -0.62304,0.3957 -0.95717,0.554623"
               id="path1002-8-1" /><path
               style="fill:none;fill-opacity:1;stroke:#000000;stroke-width:0.5046;stroke-linecap:round;stroke-linejoin:round;stroke-dasharray:none;stroke-opacity:1"
               d="m 256.18002,42.917636 c 0.37115,-0.03289 0.71895,-0.182857 1.09135,-0.214693"
               id="path1003-4-2" /><path
               style="fill:none;fill-opacity:1;stroke:#000000;stroke-width:0.5046;stroke-linecap:round;stroke-linejoin:round;stroke-dasharray:none;stroke-opacity:1"
               d="m 248.39079,40.678999 c 3.12969,1.22737 5.36039,4.029709 3.96024,5.389433 -0.79807,0.54609 -1.58154,0.464138 -2.55409,0.278685 -1.45223,-0.04981 -1.78348,-1.03349 -2.90744,-1.253655 -0.75382,-0.196596 -1.64743,-0.484668 -2.03491,-1.117557 -0.9647,0.03959 -1.84214,-0.238051 -2.77694,-0.353748 -0.43074,0.05059 -1.105,0.104818 -1.55149,-0.315981"
               id="path1004-5-6"
               sodipodi:nodetypes="ccccccc" /><path
               style="fill:none;fill-opacity:1;stroke:#000000;stroke-width:0.5046;stroke-linecap:round;stroke-linejoin:round;stroke-dasharray:none;stroke-opacity:1"
               d="m 242.38476,41.800013 c -0.80215,0.399743 -1.36053,1.26132 -2.11786,1.697098 -0.5201,0.0048 -0.92677,-0.812934 -1.45066,-0.412237 -0.56651,-0.441951 -0.14266,-1.519413 -0.47985,-2.29908 0.0469,-0.897093 0.19432,-1.707786 0.7227,-2.4051 0.6216,-0.576528 0.65356,-1.412276 1.4339,-2.229125 0.51627,-0.489777 0.78071,-1.162518 1.60433,-1.986292 0.4361,-0.761993 1.58789,-0.961146 2.3307,-0.764954 0.49562,0.03107 0.67963,0.4469 0.94375,0.787953"
               id="path1005-7-9"
               sodipodi:nodetypes="ccccccccc" /><path
               style="fill:none;fill-opacity:1;stroke:#000000;stroke-width:0.5046;stroke-linecap:round;stroke-linejoin:round;stroke-dasharray:none;stroke-opacity:1"
               d="m 243.43436,33.404486 c 0.54699,-0.602757 1.60777,-0.92308 2.61656,-1.034238 0.54092,-0.181699 0.56385,0.549172 1.10195,0.0173 0.63368,-0.105552 2.48852,-0.06655 3.08355,0.18133"
               id="path1006-9-1"
               sodipodi:nodetypes="cccc" /><path
               style="fill:none;fill-opacity:1;stroke:#000000;stroke-width:0.5046;stroke-linecap:round;stroke-linejoin:round;stroke-dasharray:none;stroke-opacity:1"
               d="m 244.0637,43.769281 c -0.84751,-0.155179 -0.95513,-1.144703 -1.34667,-1.730745 -0.0488,-0.133031 -0.18557,-0.175028 -0.30216,-0.224629"
               id="path1007-8-90" /><path
               style="fill:none;fill-opacity:1;stroke:#000000;stroke-width:0.5046;stroke-linecap:round;stroke-linejoin:round;stroke-dasharray:none;stroke-opacity:1"
               d="m 242.24653,39.86037 c -0.2707,-0.749805 0.89305,-0.452826 1.32558,-0.541939"
               id="path1008-4-6"
               sodipodi:nodetypes="cc" /><path
               style="fill:none;fill-opacity:1;stroke:#000000;stroke-width:0.5046;stroke-linecap:round;stroke-linejoin:round;stroke-dasharray:none;stroke-opacity:1"
               d="m 239.3891,41.907416 c 0.52214,-0.491209 0.53029,-1.188568 0.90007,-1.802216 0.29588,-0.192976 0.44832,-0.507118 0.71893,-0.727526"
               id="path1010-8-7" /><path
               style="fill:none;fill-opacity:1;stroke:#000000;stroke-width:0.5046;stroke-linecap:round;stroke-linejoin:round;stroke-dasharray:none;stroke-opacity:1"
               d="m 240.28534,37.426161 c 0.26554,-0.804478 0.60027,-0.807332 1.31235,-1.299118 0.83977,-0.604629 1.47718,-0.365606 2.12576,-0.414967 0.74395,-0.09072 1.89552,-0.126624 2.63015,-0.03664 0.47662,0.509708 0.59957,0.925214 1.13064,1.403779"
               id="path1011-8-3"
               sodipodi:nodetypes="ccccc" /><path
               style="fill:none;fill-opacity:1;stroke:#000000;stroke-width:0.5046;stroke-linecap:round;stroke-linejoin:round;stroke-dasharray:none;stroke-opacity:1"
               d="m 242.3771,36.381911 c -0.0237,1.011015 0.55346,1.743459 0.99876,2.355738 0.13147,0.965334 0.40029,0.833459 0.68475,0.983917"
               id="path1012-9-8"
               sodipodi:nodetypes="ccc" /><path
               style="fill:none;fill-opacity:1;stroke:#000000;stroke-width:0.5046;stroke-linecap:round;stroke-linejoin:round;stroke-dasharray:none;stroke-opacity:1"
               d="m 243.88253,40.314387 c 0.85427,0.400928 1.7062,0.828179 2.18247,1.67039 0.71664,0.451793 1.60832,0.137478 2.35532,0.564962 0.91119,0.08252 1.27762,1.264209 2.23664,1.307935 0.194,0.0743 0.32501,0.243216 0.52111,0.316016"
               id="path1015-0-6" /><path
               style="fill:none;fill-opacity:1;stroke:#000000;stroke-width:0.5046;stroke-linecap:round;stroke-linejoin:round;stroke-dasharray:none;stroke-opacity:1"
               d="m 248.24572,40.588267 c -0.77316,-0.38948 -0.85462,-0.439244 -1.77876,-1.028645 -0.81317,-0.473958 -1.07281,-0.909599 -0.9705,-1.290127"
               id="path1018-6-4"
               sodipodi:nodetypes="ccc" /><path
               style="fill:none;fill-opacity:1;stroke:#000000;stroke-width:0.5046;stroke-linecap:round;stroke-linejoin:round;stroke-dasharray:none;stroke-opacity:1"
               d="m 250.98234,45.467863 c -0.76292,-0.15375 -1.43623,-0.627141 -2.01598,-1.122277 -0.57113,-0.03248 -0.98282,-0.244646 -1.38918,-0.640526 -0.64936,-0.492017 -1.76884,0.201395 -2.16791,-0.799278 -0.0787,-0.101566 -0.12392,-0.24141 -0.25183,-0.295624"
               id="path1024-2-2" /><path
               style="fill:none;fill-opacity:1;stroke:#000000;stroke-width:0.5046;stroke-linecap:round;stroke-linejoin:round;stroke-dasharray:none;stroke-opacity:1"
               d="m 245.83628,43.40944 c -0.20075,0.07385 -0.32652,0.249739 -0.4927,0.372268"
               id="path1025-4-4" /><path
               style="fill:none;fill-opacity:1;stroke:#000000;stroke-width:0.5046;stroke-linecap:round;stroke-linejoin:round;stroke-dasharray:none;stroke-opacity:1"
               d="m 245.06196,34.235953 c 0.20738,0.613109 1.05994,0.883861 0.98503,-0.04785 -5.8e-4,-0.470962 0.16605,-1.00774 0.58207,-1.274832"
               id="path1027-7-4" /><path
               style="fill:none;fill-opacity:1;stroke:#000000;stroke-width:0.5046;stroke-linecap:round;stroke-linejoin:round;stroke-dasharray:none;stroke-opacity:1"
               d="m 247.13524,36.635073 c 0.18995,-0.470165 -0.013,-1.021749 0.34243,-1.434085"
               id="path1030-0-79" /><path
               style="fill:none;fill-opacity:1;stroke:#000000;stroke-width:0.5046;stroke-linecap:round;stroke-linejoin:round;stroke-dasharray:none;stroke-opacity:1"
               d="m 249.69686,38.545564 c 0.0466,-0.850687 0.23243,-1.128147 -0.34861,-1.86397 -0.34803,-0.657413 -1.13208,-1.091072 -0.66405,-1.918197 -0.0942,-1.051272 -1.39248,-0.906795 -1.6722,-1.775096"
               id="path1033-0-0"
               sodipodi:nodetypes="cccc" /><path
               style="fill:none;fill-opacity:1;stroke:#000000;stroke-width:0.5046;stroke-linecap:round;stroke-linejoin:round;stroke-dasharray:none;stroke-opacity:1"
               d="m 248.68258,32.797538 c 0.57835,0.641321 1.33323,1.163561 1.24813,1.812057"
               id="path1035-7-1"
               sodipodi:nodetypes="cc" /><path
               style="fill:none;fill-opacity:1;stroke:#000000;stroke-width:0.5046;stroke-linecap:round;stroke-linejoin:round;stroke-dasharray:none;stroke-opacity:1"
               d="m 249.91657,34.440735 c 0.27447,-0.117939 0.4916,0.09997 0.67601,0.229009"
               id="path1037-7-2"
               sodipodi:nodetypes="cc" /><path
               style="fill:none;fill-opacity:1;stroke:#000000;stroke-width:0.5046;stroke-linecap:round;stroke-linejoin:round;stroke-dasharray:none;stroke-opacity:1"
               d="m 250.50755,34.879455 c 0.20589,-0.697307 1.52505,-0.97494 2.08587,-0.188859 0.71088,0.388264 1.55638,0.559207 1.85032,1.41532 0.39866,0.153512 0.62532,0.326015 0.86164,0.775843"
               id="path1038-5-2"
               sodipodi:nodetypes="cccc" /><path
               style="fill:none;fill-opacity:1;stroke:#000000;stroke-width:0.5046;stroke-linecap:round;stroke-linejoin:round;stroke-dasharray:none;stroke-opacity:1"
               d="m 250.61184,36.222529 c 0.57283,0.57858 1.28478,0.792172 1.05309,1.739456 0.009,0.744019 -0.3112,2.161611 -1.21508,1.543005"
               id="path1040-9-4"
               sodipodi:nodetypes="ccc" /><path
               style="fill:none;fill-opacity:1;stroke:#000000;stroke-width:0.5046;stroke-linecap:round;stroke-linejoin:round;stroke-dasharray:none;stroke-opacity:1"
               d="m 251.72395,37.939061 c 0.79559,-0.335072 1.41282,0.688811 2.07592,0.889337"
               id="path1042-4-7"
               sodipodi:nodetypes="cc" /><path
               style="fill:none;fill-opacity:1;stroke:#000000;stroke-width:0.5046;stroke-linecap:round;stroke-linejoin:round;stroke-dasharray:none;stroke-opacity:1"
               d="m 254.54284,39.384665 c 0.72559,0.2376 1.75152,1.058936 1.1333,1.927411"
               id="path1043-9-7"
               sodipodi:nodetypes="cc" /><path
               style="fill:none;fill-opacity:1;stroke:#000000;stroke-width:0.5046;stroke-linecap:round;stroke-linejoin:round;stroke-dasharray:none;stroke-opacity:1"
               d="m 253.82968,41.055025 c 0.25088,0.224821 0.64798,0.336843 0.512,0.943182"
               id="path1044-1-2"
               sodipodi:nodetypes="cc" /><path
               style="fill:none;fill-opacity:1;stroke:#000000;stroke-width:0.5046;stroke-linecap:round;stroke-linejoin:round;stroke-dasharray:none;stroke-opacity:1"
               d="m 251.97419,37.590676 c 0.15613,-0.207993 0.42323,-0.282406 0.57544,-0.493229"
               id="path1047-8-0" /><path
               style="fill:none;fill-opacity:1;stroke:#000000;stroke-width:0.5046;stroke-linecap:round;stroke-linejoin:round;stroke-dasharray:none;stroke-opacity:1"
               d="m 254.2407,37.308831 c 0.58346,0.122699 1.19808,-0.177939 1.75561,0.440668 0.36991,0.264857 1.31722,0.919954 1.23183,1.947652 0.005,0.556622 0.60907,0.782564 -0.18526,1.950305"
               id="path1050-9-6"
               sodipodi:nodetypes="cccc" /><path
               style="fill:none;fill-opacity:1;stroke:#000000;stroke-width:0.5046;stroke-linecap:round;stroke-linejoin:round;stroke-dasharray:none;stroke-opacity:1"
               d="m 246.57509,44.998944 c -0.28578,0.385708 -0.78805,1.052839 -1.14239,0.424748 -0.24723,0.674599 0.77585,1.751726 -0.47135,1.992847 -1.13921,0.587597 -2.56434,0.197613 -3.57476,-0.490517 -0.56594,-0.454662 -1.75069,-1.174182 -1.11912,-2.00272 0.39395,-0.667611 1.02167,-0.94003 1.59924,-1.36501"
               id="path1057-6-44" /><path
               style="fill:none;fill-opacity:1;stroke:#000000;stroke-width:0.5046;stroke-linecap:round;stroke-linejoin:round;stroke-dasharray:none;stroke-opacity:1"
               d="m 245.61012,45.534866 c -0.32292,-0.836262 -1.34017,-0.787221 -2.06323,-1.028312 -0.7572,-0.06818 -1.46192,-0.422148 -2.2313,-0.340644 h -0.0242"
               id="path1058-1-8" /><path
               style="fill:none;fill-opacity:1;stroke:#000000;stroke-width:0.5046;stroke-linecap:round;stroke-linejoin:round;stroke-dasharray:none;stroke-opacity:1"
               d="m 245.40053,45.596002 c -0.23486,1.018752 -1.52682,0.791054 -2.2752,0.536999 -0.81116,-0.384141 -1.84234,-0.557794 -2.34267,-1.380915 l -0.0548,-0.123401"
               id="path1059-9-0" /><path
               style="fill:none;fill-opacity:1;stroke:#000000;stroke-width:0.5046;stroke-linecap:round;stroke-linejoin:round;stroke-dasharray:none;stroke-opacity:1"
               d="m 240.41442,45.286824 c 0.35349,0.194808 0.76395,0.163243 1.12824,0.329069"
               id="path1060-6-1" /><path
               style="fill:none;fill-opacity:1;stroke:#000000;stroke-width:0.5046;stroke-linecap:round;stroke-linejoin:round;stroke-dasharray:none;stroke-opacity:1"
               d="m 245.49038,45.530442 c -0.93524,-0.481001 -2.04438,-0.308717 -2.99185,-0.760726 -0.40187,-0.07576 -0.78459,-0.193531 -1.17525,-0.3134"
               id="path1061-7-5" /><path
               style="fill:none;fill-opacity:1;stroke:#000000;stroke-width:0.5046;stroke-linecap:round;stroke-linejoin:round;stroke-dasharray:none;stroke-opacity:1"
               d="m 245.39747,46.211353 c -0.64782,0.744101 -1.69395,0.953682 -2.64822,0.814837 -0.15197,-0.01039 -0.30352,-0.02642 -0.45443,-0.04701"
               id="path1062-8-1" /><path
               style="fill:none;fill-opacity:1;stroke:#000000;stroke-width:0.5046;stroke-linecap:round;stroke-linejoin:round;stroke-dasharray:none;stroke-opacity:1"
               d="m 245.56984,46.493412 c -0.35015,0.575026 -1.14245,0.772297 -1.75504,0.940197"
               id="path1063-9-1" /><path
               style="fill:none;fill-opacity:1;stroke:#000000;stroke-width:0.5046;stroke-linecap:round;stroke-linejoin:round;stroke-dasharray:none;stroke-opacity:1"
               d="m 241.95252,44.136696 c -0.0329,-0.02974 -0.16208,-0.1385 -0.19373,-0.16314"
               id="path1064-7-1" /><path
               style="fill:none;fill-opacity:1;stroke:#000000;stroke-width:0.5046;stroke-linecap:round;stroke-linejoin:round;stroke-dasharray:none;stroke-opacity:1"
               d="m 244.98972,44.529022 c -0.43675,-0.218519 -0.9067,-0.354185 -1.37798,-0.47734"
               id="path1065-5-5" /><path
               style="fill:none;fill-opacity:1;stroke:#000000;stroke-width:0.5046;stroke-linecap:round;stroke-linejoin:round;stroke-dasharray:none;stroke-opacity:1"
               d="m 247.22306,39.034529 c 0.0528,0.322865 2.31367,0.629991 2.78824,0.864561"
               id="path2"
               sodipodi:nodetypes="cc" /><path
               style="fill:none;fill-opacity:1;stroke:#000000;stroke-width:0.5046;stroke-linecap:round;stroke-linejoin:round;stroke-dasharray:none;stroke-opacity:1"
               d="m 254.11313,42.187064 c -0.15452,0.348645 -1.36178,1.430959 -1.67317,1.217673"
               id="path3"
               sodipodi:nodetypes="cc" /></g></g></g></g></g></svg>
