<?xml version="1.0" encoding="UTF-8" standalone="no"?>
<!-- Created with Inkscape (http://www.inkscape.org/) -->

<svg
   width="89.315521mm"
   height="64.125717mm"
   viewBox="0 0 89.315522 64.125718"
   version="1.1"
   id="svg1"
   inkscape:version="1.3.2 (091e20e, 2023-11-25)"
   sodipodi:docname="left_medial.svg"
   xml:space="preserve"
   xmlns:inkscape="http://www.inkscape.org/namespaces/inkscape"
   xmlns:sodipodi="http://sodipodi.sourceforge.net/DTD/sodipodi-0.dtd"
   xmlns="http://www.w3.org/2000/svg"
   xmlns:svg="http://www.w3.org/2000/svg"><sodipodi:namedview
     id="namedview1"
     pagecolor="#ffffff"
     bordercolor="#000000"
     borderopacity="0.25"
     inkscape:showpageshadow="2"
     inkscape:pageopacity="0.0"
     inkscape:pagecheckerboard="0"
     inkscape:deskcolor="#d1d1d1"
     inkscape:document-units="mm"
     inkscape:zoom="2.1128375"
     inkscape:cx="208.9607"
     inkscape:cy="166.6006"
     inkscape:window-width="1728"
     inkscape:window-height="1055"
     inkscape:window-x="0"
     inkscape:window-y="34"
     inkscape:window-maximized="1"
     inkscape:current-layer="g1065-8-9"
     showguides="false" /><defs
     id="defs1" /><g
     inkscape:label="Layer 1"
     inkscape:groupmode="layer"
     id="layer1"
     transform="translate(2.3445156,-0.93605902)"><g
       id="g1067-1-0"
       transform="matrix(2.2827467,0,0,2.2086629,-137.99834,310.89713)"><g
         id="g1066-0-3"
         transform="matrix(-1.2976993,0,0,1.2917277,186.84649,24.53971)"
         style="stroke-width:0.72820684;stroke-dasharray:none"><g
           id="g1065-8-9"
           transform="matrix(1.4342893,0,0,1.4289275,-271.98211,-147.16327)"
           style="stroke-width:0.50866433;stroke-dasharray:none"><g
             id="g2"
             style="stroke-width:0.50866433;stroke-dasharray:none"
             transform="translate(0.59357349,0.02520364)"><path
               style="fill:none;stroke:#1a1a1a;stroke-width:0.50866433;stroke-linecap:round;stroke-linejoin:round;stroke-dasharray:none"
               d="m 249.40524,14.395102 c -0.72444,-0.332297 -1.19601,-0.944823 -2.7758,-0.476862 -1.25298,0.138654 -1.4867,-0.09926 -2.63485,0.08544 -0.9518,0.570064 -2.72132,1.154835 -2.72587,1.698891 -0.81471,0.452115 -1.21023,0.89011 -1.89776,1.532218 -0.89298,0.691423 -1.70136,1.394911 -2.13954,2.432045 -0.39272,0.806629 -0.74415,1.65323 -0.68877,2.582501 0.13695,1.011204 0.11468,1.670107 0.56602,2.063647 0.19499,0.977259 3.01353,0.999394 3.3735,1.616405 0.61315,0.02137 1.14217,-0.280466 1.79413,-0.317838 0.51958,-0.191636 0.91435,-0.624035 1.38809,-0.896034"
               id="path1-7"
               sodipodi:nodetypes="ccccccccccc" /><path
               style="fill:none;stroke:#1a1a1a;stroke-width:0.50866433;stroke-linecap:round;stroke-linejoin:round;stroke-dasharray:none"
               d="m 243.65801,24.718694 c 0.3646,-0.183668 0.57083,-0.166542 1.0446,-0.26987"
               id="path5"
               sodipodi:nodetypes="cc" /><path
               style="fill:none;stroke:#1a1a1a;stroke-width:0.50866433;stroke-linecap:round;stroke-linejoin:round;stroke-dasharray:none"
               d="m 249.23216,22.292266 c -0.57729,1.245914 -1.47415,2.368576 -2.48402,2.597765 -1.10643,0.300563 -1.24735,-0.492207 -2.15895,-0.430459"
               id="path9"
               sodipodi:nodetypes="ccc" /><path
               style="fill:none;stroke:#1a1a1a;stroke-width:0.50866433;stroke-linecap:round;stroke-linejoin:round;stroke-dasharray:none"
               d="m 249.57206,23.005001 c -1.94863,2.587398 -2.64618,2.968371 -3.82232,2.786371"
               id="path10-3"
               sodipodi:nodetypes="cc" /><path
               style="fill:none;stroke:#1a1a1a;stroke-width:0.50866433;stroke-linecap:round;stroke-linejoin:round;stroke-dasharray:none"
               d="m 245.75288,25.77695 c -0.78475,-0.06635 -1.67293,-0.802032 -0.34525,-1.052143"
               id="path11"
               sodipodi:nodetypes="cc" /><path
               style="fill:none;stroke:#1a1a1a;stroke-width:0.50866433;stroke-linecap:round;stroke-linejoin:round;stroke-dasharray:none"
               d="m 246.82984,20.00431 c -1.44664,-0.271443 -3.08148,0.09528 -4.06075,1.252258 -0.99321,0.512338 0.40478,0.87613 0.44305,1.217904 -0.71068,0.617644 -2.50952,0.417614 -1.96297,-0.84852 0.50721,-0.879121 1.46721,-1.335633 2.26689,-1.904486 0.79157,-0.516096 1.7343,-0.740136 2.67256,-0.611073 1.09426,0.342373 2.37429,0.06812 3.31813,0.754569 0.87924,0.500037 0.61074,2.32257 -0.5651,1.724262 -0.33185,-0.691308 -0.82009,-1.661807 -1.79261,-1.335466 -0.87391,0.311153 -1.80246,0.942466 -2.19603,1.807283 -0.098,0.350782 -0.095,0.719352 -0.173,1.073993"
               id="path13-4" /><path
               style="fill:none;stroke:#1a1a1a;stroke-width:0.50866433;stroke-linecap:round;stroke-linejoin:round;stroke-dasharray:none"
               d="m 246.79213,20.017601 c -1.02219,0.441543 -1.83182,1.239389 -2.35121,1.738611 -0.0647,0.484944 -0.44925,0.493798 -0.8813,0.539427"
               id="path14-3"
               sodipodi:nodetypes="ccc" /><path
               style="fill:none;stroke:#1a1a1a;stroke-width:0.50866433;stroke-linecap:round;stroke-linejoin:round;stroke-dasharray:none"
               d="m 243.67667,22.495557 c 0.65009,-0.04915 0.79397,1.367509 0.90949,1.11084 0.0452,-0.181813 0.087,-0.365005 0.10907,-0.551308"
               id="path15" /><path
               style="fill:none;stroke:#1a1a1a;stroke-width:0.50866433;stroke-linecap:round;stroke-linejoin:round;stroke-dasharray:none"
               d="m 245.33946,21.77616 c 0.31784,-0.438632 0.79005,-0.66758 1.32766,-0.626082"
               id="path17" /><path
               style="fill:none;stroke:#1a1a1a;stroke-width:0.50866433;stroke-linecap:round;stroke-linejoin:round;stroke-dasharray:none"
               d="m 241.98565,24.38136 c -0.75869,-0.436887 -1.72367,-0.490404 -2.34774,-1.164756 -0.46653,-0.348428 -0.40482,-1.064307 -0.89161,-1.400552"
               id="path18-0" /><path
               style="fill:none;stroke:#1a1a1a;stroke-width:0.50866433;stroke-linecap:round;stroke-linejoin:round;stroke-dasharray:none"
               d="m 239.48412,22.256893 c 0.0642,-1.018011 0.33291,-2.099989 1.3384,-2.585418 0.93123,-0.625368 1.87407,-1.227838 2.90998,-1.675212 0.92058,-0.438707 1.94004,-0.773485 2.96112,-0.480027 1.00519,-0.365113 2.0644,0.01069 3.04542,-0.481647"
               id="path19-4"
               sodipodi:nodetypes="ccccc" /><path
               style="fill:none;stroke:#1a1a1a;stroke-width:0.50866433;stroke-linecap:round;stroke-linejoin:round;stroke-dasharray:none"
               d="m 248.54479,17.144401 c 1.03981,-0.480697 1.89784,-1.627856 1.75611,-2.802607 l -0.0598,-0.181115 -0.0914,-0.143645"
               id="path20-8" /><path
               style="fill:none;stroke:#1a1a1a;stroke-width:0.50866433;stroke-linecap:round;stroke-linejoin:round;stroke-dasharray:none"
               d="m 248.48451,13.922167 c 1.88515,-0.310185 1.75853,0.112171 2.60669,0.104798 1.84279,0.599686 1.16066,1.91197 0.89107,2.807929"
               id="path21-7"
               sodipodi:nodetypes="ccc" /><path
               style="fill:none;stroke:#1a1a1a;stroke-width:0.50866433;stroke-linecap:round;stroke-linejoin:round;stroke-dasharray:none"
               d="m 252.23891,14.809691 c 0.67075,0.08882 1.00641,-0.10103 1.22853,0.737954 1.01097,0.679417 1.46688,1.783131 0.37367,2.653717"
               id="path22-5"
               sodipodi:nodetypes="ccc" /><path
               style="fill:none;stroke:#1a1a1a;stroke-width:0.50866433;stroke-linecap:round;stroke-linejoin:round;stroke-dasharray:none"
               d="m 252.12101,18.905952 c 0.05,-1.202437 -0.79999,-1.272807 -1.83691,-1.018515"
               id="path23-9"
               sodipodi:nodetypes="cc" /><path
               style="fill:none;stroke:#1a1a1a;stroke-width:0.50866433;stroke-linecap:round;stroke-linejoin:round;stroke-dasharray:none"
               d="m 246.83447,17.169246 c -0.78121,-0.355998 -1.7881,-0.167301 -2.34009,-0.972435"
               id="path24" /><path
               style="fill:none;stroke:#1a1a1a;stroke-width:0.50866433;stroke-linecap:round;stroke-linejoin:round;stroke-dasharray:none"
               d="m 245.70056,15.747954 c -0.0632,-0.39786 -0.46654,-0.609171 -0.60303,-0.972453"
               id="path25" /><path
               style="fill:none;stroke:#1a1a1a;stroke-width:0.50866433;stroke-linecap:round;stroke-linejoin:round;stroke-dasharray:none"
               d="m 247.82362,16.720416 c 0.0595,-0.588759 -0.16682,-1.158913 -0.4341,-1.670641"
               id="path26" /><path
               style="fill:none;stroke:#1a1a1a;stroke-width:0.50866433;stroke-linecap:round;stroke-linejoin:round;stroke-dasharray:none"
               d="m 254.2908,18.546478 c -0.0805,0.929723 -0.5824,1.509449 -0.99021,2.087759 -0.22387,0.333572 -0.14234,0.705009 -0.13114,1.060953"
               id="path29"
               sodipodi:nodetypes="ccc" /><path
               style="fill:none;stroke:#1a1a1a;stroke-width:0.50866433;stroke-linecap:round;stroke-linejoin:round;stroke-dasharray:none"
               d="m 251.27909,22.702716 c 0.76112,-0.309662 0.22829,-0.152531 1.04649,-0.397455 0.85173,-0.430913 1.98926,-0.530921 2.82718,-0.284184 1.05107,0.692348 1.62701,0.8907 1.87876,2.005277"
               id="path31-5"
               sodipodi:nodetypes="cccc" /><path
               style="fill:none;stroke:#1a1a1a;stroke-width:0.50866433;stroke-linecap:round;stroke-linejoin:round;stroke-dasharray:none"
               d="m 254.49649,16.785885 c 0.41576,0.556758 1.19727,1.200547 1.27925,1.975671 0.0832,1.015361 0.92467,0.755635 1.38745,2.15126 0.30169,0.71354 0.25039,1.525126 0.0631,2.282982 -0.16193,0.780299 -0.31364,1.378878 -1.40001,1.408792 -0.56103,0.418366 -0.57368,0.428116 -1.12778,0.07979 -0.97983,1.325882 -2.00811,-0.474012 -2.49748,-1.110913 -0.13126,-0.0813 -0.24502,-0.127778 -0.39844,-0.156796"
               id="path32-3"
               sodipodi:nodetypes="cccccccc" /><path
               style="fill:none;stroke:#1a1a1a;stroke-width:0.50866433;stroke-linecap:round;stroke-linejoin:round;stroke-dasharray:none"
               d="m 251.60021,23.384998 c -0.51645,0.507315 -1.45618,0.223675 -2.07735,1.070667 -0.6378,0.658719 -2.35017,1.965069 -4.1145,2.461971"
               id="path33"
               sodipodi:nodetypes="ccc" /><path
               style="fill:none;stroke:#1a1a1a;stroke-width:0.50866433;stroke-linecap:round;stroke-linejoin:round;stroke-dasharray:none"
               d="m 243.27735,25.244855 c -0.30009,0.87792 -0.59547,2.247352 0.25711,2.322917 0.79041,0.176434 1.99668,0.320084 2.79514,-0.05012 1.12977,-0.386518 1.32108,-0.944695 2.56082,-1.403654"
               id="path34-2"
               sodipodi:nodetypes="cccc" /><path
               style="fill:none;stroke:#1a1a1a;stroke-width:0.50866433;stroke-linecap:round;stroke-linejoin:round;stroke-dasharray:none"
               d="m 253.13589,24.78506 c 0.45989,0.533257 1.6456,0.972184 2.2663,1.718392 0.0593,1.077255 -0.95855,1.752306 -1.64776,2.107449 -0.46812,0.569208 -0.89037,0.557312 -1.52835,0.461663"
               id="path35-7"
               sodipodi:nodetypes="cccc" /><path
               style="fill:none;stroke:#1a1a1a;stroke-width:0.50866433;stroke-linecap:round;stroke-linejoin:round;stroke-dasharray:none"
               d="m 252.46604,28.316281 c 0.40737,1.157625 -1.76375,1.330309 -2.40912,0.367288 -0.40339,-0.57914 -0.14144,-0.660359 0.0188,-1.004054 0.27141,-0.582158 0.0207,-0.672686 -0.0365,-0.878224 -0.18254,-0.148381 -0.43964,1.380526 -1.21906,-0.775657"
               id="path36-3"
               sodipodi:nodetypes="ccscc" /><path
               style="fill:none;stroke:#1a1a1a;stroke-width:0.50866433;stroke-linecap:round;stroke-linejoin:round;stroke-dasharray:none"
               d="m 253.41406,25.277411 c -0.53989,0.582912 -0.78183,0.655552 -2.06719,0.719476"
               id="path37-9"
               sodipodi:nodetypes="cc" /><path
               style="fill:none;stroke:#1a1a1a;stroke-width:0.50866433;stroke-linecap:round;stroke-linejoin:round;stroke-dasharray:none"
               d="m 251.10283,26.164795 c -0.73916,0.404871 -0.29116,0.945367 -0.96261,1.107948"
               id="path38"
               sodipodi:nodetypes="cc" /><path
               style="fill:none;stroke:#1a1a1a;stroke-width:0.50866433;stroke-linecap:round;stroke-linejoin:round;stroke-dasharray:none"
               d="m 252.50288,23.975229 c -0.57623,-0.430975 -1.19765,-0.533905 -1.64233,0.166517 -0.54912,0.0074 -0.74433,0.367059 -0.68621,0.899712 -0.94278,-0.241091 -0.4403,0.920059 -1.31769,1.06724"
               id="path39-7"
               sodipodi:nodetypes="cccc" /><path
               style="fill:none;stroke:#1a1a1a;stroke-width:0.50866433;stroke-linecap:round;stroke-linejoin:round;stroke-dasharray:none"
               d="m 243.36339,16.201472 c 0.031,0.403525 0.0374,0.815291 -0.0534,1.212141"
               id="path40" /><path
               style="fill:none;stroke:#1a1a1a;stroke-width:0.50866433;stroke-linecap:round;stroke-linejoin:round;stroke-dasharray:none"
               d="m 240.84713,18.135238 c -0.3777,0.45523 -0.89367,0.605774 -1.34886,0.931314"
               id="path41"
               sodipodi:nodetypes="cc" /><path
               style="fill:none;stroke:#1a1a1a;stroke-width:0.50866433;stroke-linecap:round;stroke-linejoin:round;stroke-dasharray:none"
               d="m 237.19428,21.396694 c 0.006,0.230105 -0.028,0.45872 -0.0267,0.688716"
               id="path42-7" /><path
               style="fill:none;stroke:#1a1a1a;stroke-width:0.50866433;stroke-linecap:round;stroke-linejoin:round;stroke-dasharray:none"
               d="m 252.07125,23.411424 c 0.25599,0.04676 0.48356,-0.09607 0.70879,-0.18899"
               id="path43" /><path
               style="fill:none;stroke:#1a1a1a;stroke-width:0.50866433;stroke-linecap:round;stroke-linejoin:round;stroke-dasharray:none"
               d="m 255.06853,23.975239 c -0.14979,0.327854 -1.35385,-0.04537 -1.72569,-0.05518"
               id="path44"
               sodipodi:nodetypes="cc" /><path
               style="fill:none;stroke:#1a1a1a;stroke-width:0.50866433;stroke-linecap:round;stroke-linejoin:round;stroke-dasharray:none"
               d="m 239.92627,24.312007 c -0.57011,-0.01618 -1.04733,-0.376701 -1.51177,-0.629646"
               id="path45" /><path
               style="fill:none;stroke:#1a1a1a;stroke-width:0.50866433;stroke-linecap:round;stroke-linejoin:round;stroke-dasharray:none"
               d="m 253.54323,26.317924 c 0.0116,1.396427 -1.41212,1.909661 -2.3537,0.610725"
               id="path274-9"
               sodipodi:nodetypes="cc" /><path
               style="fill:none;stroke:#1a1a1a;stroke-width:0.50866433;stroke-linecap:round;stroke-linejoin:round;stroke-dasharray:none"
               d="m 244.291,24.66608 c -0.14941,0.168908 -0.25262,0.608208 -0.57276,0.873878"
               id="path275"
               sodipodi:nodetypes="cc" /></g></g></g></g></g></svg>
