<?xml version="1.0" encoding="UTF-8" standalone="no"?>
<!-- Created with Inkscape (http://www.inkscape.org/) -->

<svg
   width="89.315521mm"
   height="64.125717mm"
   viewBox="0 0 89.315522 64.125718"
   version="1.1"
   id="svg1"
   inkscape:version="1.3.2 (091e20e, 2023-11-25)"
   sodipodi:docname="right_medial.svg"
   xml:space="preserve"
   xmlns:inkscape="http://www.inkscape.org/namespaces/inkscape"
   xmlns:sodipodi="http://sodipodi.sourceforge.net/DTD/sodipodi-0.dtd"
   xmlns="http://www.w3.org/2000/svg"
   xmlns:svg="http://www.w3.org/2000/svg"><sodipodi:namedview
     id="namedview1"
     pagecolor="#ffffff"
     bordercolor="#000000"
     borderopacity="0.25"
     inkscape:showpageshadow="2"
     inkscape:pageopacity="0.0"
     inkscape:pagecheckerboard="0"
     inkscape:deskcolor="#d1d1d1"
     inkscape:document-units="mm"
     inkscape:zoom="2.5358995"
     inkscape:cx="173.31128"
     inkscape:cy="178.2405"
     inkscape:window-width="1728"
     inkscape:window-height="1055"
     inkscape:window-x="0"
     inkscape:window-y="34"
     inkscape:window-maximized="1"
     inkscape:current-layer="g1065-8-9"
     showguides="false" /><defs
     id="defs1" /><g
     inkscape:label="Layer 1"
     inkscape:groupmode="layer"
     id="layer1"
     transform="translate(2.3445156,-0.93605902)"><g
       id="g1067-1-0"
       transform="matrix(2.2827467,0,0,2.2086629,-137.99834,310.89713)"><g
         id="g1066-0-3"
         transform="matrix(-1.2917277,0,0,1.2917277,186.25467,24.53971)"
         style="stroke-width:0.226054;stroke-dasharray:none"><g
           id="g1065-8-9"
           transform="matrix(1.4464692,0,0,1.4464692,-274.77444,-147.32699)"
           style="stroke-width:0.15628;stroke-dasharray:none"><path
             style="fill:none;stroke:#1a1a1a;stroke-width:0.50452;stroke-linecap:round;stroke-linejoin:round;stroke-dasharray:none"
             d="m 245.33212,13.880729 c 0.18788,-0.01672 0.62354,-0.36805 2.00384,-0.120689 0.50707,0.08279 1.22842,0.01432 2.6377,0.423705 0.76891,0.25784 2.00722,0.991613 2.65881,1.42308 0.31679,0.205096 1.27827,1.011035 2.06539,1.611973 4.09899,3.320862 3.26079,6.231709 2.23859,6.946279 -1.26679,1.034863 -3.11586,1.267017 -5.0771,1.138435 -0.20667,-0.02676 -0.66384,-0.0212 -2.01434,-0.241397 -2.42094,-0.394724 -3.8025,-0.642737 -5.06326,-1.731518"
             id="path1"
             sodipodi:nodetypes="cccccccsc" /><path
             style="fill:none;stroke:#1a1a1a;stroke-width:0.50452;stroke-linecap:round;stroke-linejoin:round;stroke-dasharray:none"
             d="m 244.49369,23.795738 c 0.97243,0.327615 2.35256,1.858439 3.3125,2.238737 0.68153,0.27 1.17254,-0.572028 0.908,-0.896824"
             id="path10"
             sodipodi:nodetypes="csc" /><path
             style="fill:none;stroke:#1a1a1a;stroke-width:0.50452;stroke-linecap:round;stroke-linejoin:round;stroke-dasharray:none"
             d="m 247.31386,19.822432 c 1.44664,-0.271443 3.08148,0.09528 4.06075,1.252258 0.99321,0.512338 -0.40478,0.87613 -0.44305,1.217904 0.71068,0.617644 2.50952,0.417614 1.96297,-0.84852 -0.50721,-0.879121 -1.46721,-1.335633 -2.26689,-1.904486 -0.79157,-0.516096 -1.7343,-0.740136 -2.67256,-0.611073 -1.09426,0.342373 -2.37429,0.06812 -3.31813,0.754569 -0.87924,0.500037 -0.61074,2.32257 0.5651,1.724262 0.3139,-0.661165 0.77,-1.26144 2.11669,-1.563518"
             id="path13"
             sodipodi:nodetypes="ccccccccc" /><path
             style="fill:none;stroke:#1a1a1a;stroke-width:0.50452;stroke-linecap:round;stroke-linejoin:round;stroke-dasharray:none"
             d="m 247.25297,19.869693 c 1.02219,0.441543 1.83182,1.239389 2.35121,1.738611 0.0647,0.484944 0.44925,0.493798 0.8813,0.539427"
             id="path14"
             sodipodi:nodetypes="ccc" /><path
             style="fill:none;stroke:#1a1a1a;stroke-width:0.50452;stroke-linecap:round;stroke-linejoin:round;stroke-dasharray:none"
             d="m 252.05945,24.233452 c 0.75869,-0.436887 1.72367,-0.490404 2.34774,-1.164756 0.46653,-0.348428 0.40482,-1.064307 0.89161,-1.400552"
             id="path18" /><path
             style="fill:none;stroke:#1a1a1a;stroke-width:0.50452;stroke-linecap:round;stroke-linejoin:round;stroke-dasharray:none"
             d="m 254.76832,22.017146 c 0.10999,-1.678158 -0.308,-2.38598 -1.31073,-3.208387 -1.12376,-0.900886 -1.98139,-1.264733 -2.75072,-1.574348 -1.02425,-0.224416 -4.16876,-0.778883 -5.18984,-0.485422"
             id="path19"
             sodipodi:nodetypes="cccc" /><path
             style="fill:none;stroke:#1a1a1a;stroke-width:0.50452;stroke-linecap:round;stroke-linejoin:round;stroke-dasharray:none"
             d="m 244.66144,16.105401 c -0.5842,-0.770477 -0.7965,-0.903699 -0.91724,-1.911515 l 0.0598,-0.181115"
             id="path20"
             sodipodi:nodetypes="ccc" /><path
             style="fill:none;stroke:#1a1a1a;stroke-width:0.50452;stroke-linecap:round;stroke-linejoin:round;stroke-dasharray:none"
             d="m 245.45878,13.808996 c -0.39138,-0.09727 -0.99209,0.01286 -1.58054,0.183929 -0.61414,0.17854 -1.21494,0.423458 -1.55048,0.568251"
             id="path21"
             sodipodi:nodetypes="csc" /><path
             style="fill:none;stroke:#1a1a1a;stroke-width:0.50452;stroke-linecap:round;stroke-linejoin:round;stroke-dasharray:none"
             d="m 242.28926,14.588938 c -0.47478,0.254053 -0.92586,0.498815 -1.67636,1.169936 -0.58032,0.508159 -2.15005,2.424991 -1.27361,3.794177 0.20592,0.467803 0.56253,1.000353 1.79951,1.82034"
             id="path22"
             sodipodi:nodetypes="cccc" /><path
             style="fill:none;stroke:#1a1a1a;stroke-width:0.50452;stroke-linecap:round;stroke-linejoin:round;stroke-dasharray:none"
             d="m 242.33462,18.9453 c -0.089,-0.87848 0.96212,-1.639915 1.57607,-1.628058"
             id="path23"
             sodipodi:nodetypes="cc" /><path
             style="fill:none;stroke:#1a1a1a;stroke-width:0.50452;stroke-linecap:round;stroke-linejoin:round;stroke-dasharray:none"
             d="m 244.11053,23.232708 c -0.76112,-0.309662 -1.33111,-0.991732 -2.14931,-1.236656 -0.85215,-0.43441 -3.05497,-0.255272 -3.83256,0.490299"
             id="path31"
             sodipodi:nodetypes="ccc" /><path
             style="fill:none;stroke:#1a1a1a;stroke-width:0.50452;stroke-linecap:round;stroke-linejoin:round;stroke-dasharray:none"
             d="m 239.62395,16.940694 c -1.07682,1.070116 -2.16361,2.396446 -2.50896,3.774939 -0.18727,0.506583 -0.20695,1.485705 -0.0197,2.243561 0.11202,0.694376 0.71921,1.416197 2.02411,1.597521 0.34184,0.190298 0.97098,0.291514 1.55595,0.406425"
             id="path32"
             sodipodi:nodetypes="ccccc" /><path
             style="fill:none;stroke:#1a1a1a;stroke-width:0.50452;stroke-linecap:round;stroke-linejoin:round;stroke-dasharray:none"
             d="m 251.24465,25.27438 c -0.7542,0.041 -0.88386,0.508115 -0.83072,0.972497 0.0886,0.774592 0.30025,1.726943 -2.59106,0.98335 -1.15207,-0.2751 -1.24486,-0.573846 -2.55661,-0.832238"
             id="path34"
             sodipodi:nodetypes="cscc" /><path
             style="fill:none;stroke:#1a1a1a;stroke-width:0.50452;stroke-linecap:round;stroke-linejoin:round;stroke-dasharray:none"
             d="m 240.90921,24.637152 c -0.22756,0.706168 -1.93144,0.916712 -2.2663,1.718392 -0.0835,1.018331 1.24481,1.856707 1.5153,2.035757 0.50626,0.342541 1.31727,0.589737 1.95525,0.494088"
             id="path35"
             sodipodi:nodetypes="cccc" /><path
             style="fill:none;stroke:#1a1a1a;stroke-width:0.50452;stroke-linecap:round;stroke-linejoin:round;stroke-dasharray:none"
             d="m 241.57906,28.168373 c 0.26656,1.002708 1.64377,1.08402 2.27696,0.712292 0.2725,-0.113206 0.80099,-0.647049 0.47473,-1.093706 -0.42623,-0.583511 -0.33458,-0.908404 -0.27732,-1.113942 0.23522,-0.233946 0.71133,1.295827 1.37181,-0.667175"
             id="path36"
             sodipodi:nodetypes="ccscc" /><path
             style="fill:none;stroke:#1a1a1a;stroke-width:0.50452;stroke-linecap:round;stroke-linejoin:round;stroke-dasharray:none"
             d="m 240.63104,25.129503 c 0.53989,0.582912 0.78183,0.655552 2.06719,0.719476"
             id="path37"
             sodipodi:nodetypes="cc" /><path
             style="fill:none;stroke:#1a1a1a;stroke-width:0.50452;stroke-linecap:round;stroke-linejoin:round;stroke-dasharray:none"
             d="m 240.96069,24.662286 c 0.8895,-0.391074 1.63911,-1.595395 2.91007,0.231264 0.20747,0.185767 0.67868,0.979189 1.55607,1.12637"
             id="path39"
             sodipodi:nodetypes="ccc" /><path
             style="fill:none;stroke:#1a1a1a;stroke-width:0.50452;stroke-linecap:round;stroke-linejoin:round;stroke-dasharray:none"
             d="m 256.62209,21.343348 c -0.006,0.230105 0.028,0.45872 0.0267,0.688716"
             id="path42" /><path
             style="fill:none;stroke:#1a1a1a;stroke-width:0.50452;stroke-linecap:round;stroke-linejoin:round;stroke-dasharray:none"
             d="m 240.36323,26.985026 c 0.52998,-0.308969 0.93061,-0.400353 1.66052,-0.47995"
             id="path274"
             sodipodi:nodetypes="cc" /></g></g></g></g></svg>
