<?xml version="1.0" encoding="UTF-8" standalone="no"?>
<!-- Created with Inkscape (http://www.inkscape.org/) -->

<svg
   width="89.315521mm"
   height="64.125717mm"
   viewBox="0 0 89.315522 64.125718"
   version="1.1"
   id="svg1"
   inkscape:version="1.3.2 (091e20e, 2023-11-25)"
   sodipodi:docname="right_medial.svg"
   xml:space="preserve"
   xmlns:inkscape="http://www.inkscape.org/namespaces/inkscape"
   xmlns:sodipodi="http://sodipodi.sourceforge.net/DTD/sodipodi-0.dtd"
   xmlns="http://www.w3.org/2000/svg"
   xmlns:svg="http://www.w3.org/2000/svg"><sodipodi:namedview
     id="namedview1"
     pagecolor="#ffffff"
     bordercolor="#000000"
     borderopacity="0.25"
     inkscape:showpageshadow="2"
     inkscape:pageopacity="0.0"
     inkscape:pagecheckerboard="0"
     inkscape:deskcolor="#d1d1d1"
     inkscape:document-units="mm"
     inkscape:zoom="1.0625744"
     inkscape:cx="106.3455"
     inkscape:cy="135.99048"
     inkscape:window-width="1312"
     inkscape:window-height="934"
     inkscape:window-x="0"
     inkscape:window-y="34"
     inkscape:window-maximized="0"
     inkscape:current-layer="g2"
     showguides="false" /><defs
     id="defs1" /><g
     inkscape:label="Layer 1"
     inkscape:groupmode="layer"
     id="layer1"
     transform="translate(2.3445156,-0.93605902)"><g
       id="g1067-1-0"
       transform="matrix(2.2827467,0,0,2.2086629,-137.99834,310.89713)"><g
         id="g1066-0-3"
         transform="matrix(-1.2917277,0,0,1.2917277,186.25467,24.53971)"
         style="stroke-width:0.226054;stroke-dasharray:none"><g
           id="g1065-8-9"
           transform="matrix(1.4464692,0,0,1.4464692,-274.77444,-147.32699)"
           style="stroke-width:0.15628;stroke-dasharray:none"><g
             id="g2"
             style="stroke-width:0.12165623;stroke-dasharray:none"
             transform="matrix(-0.98760534,0,0,0.97171825,491.28113,0.53714531)"><path
               style="fill:none;stroke:#1a1a1a;stroke-width:0.51509249;stroke-linecap:round;stroke-linejoin:round;stroke-dasharray:none"
               d="m 250.04789,13.777216 c -0.84293,-0.404084 -2.04514,-0.17783 -3.58971,-0.114093 -1.2376,0.136952 -1.38691,0.309861 -2.43943,0.713241 -0.94011,0.563065 -2.98144,0.74975 -2.98593,1.287126 -0.80471,0.446564 -0.93446,0.913173 -1.61355,1.547398 -0.88201,0.682934 -1.68047,1.377785 -2.11327,2.402185 -0.51556,1.117695 -1.1411,1.953902 -0.83309,2.871764 0.13527,0.998789 0.26605,1.328633 0.71185,1.717341 0.19259,0.965261 1.17208,1.035346 1.52763,1.644781 0.49444,0.113802 1.47809,0.13041 2.58179,-0.04871 0.5132,-0.189283 1.52775,-0.47171 1.99567,-0.740369"
               id="path1-7"
               sodipodi:nodetypes="ccccccccccc" /><path
               style="fill:none;stroke:#1a1a1a;stroke-width:0.51509249;stroke-linecap:round;stroke-linejoin:round;stroke-dasharray:none"
               d="m 243.40723,25.134483 c 0.36013,-0.181413 0.8877,-0.598489 1.35565,-0.700549"
               id="path5"
               sodipodi:nodetypes="cc" /><path
               style="fill:none;stroke:#1a1a1a;stroke-width:0.51509249;stroke-linecap:round;stroke-linejoin:round;stroke-dasharray:none"
               d="m 249.23682,22.303854 c -0.5702,1.230617 -1.45605,2.339495 -2.45352,2.565871 -1.09285,0.296872 -1.23204,-0.486164 -2.13245,-0.425175"
               id="path9"
               sodipodi:nodetypes="ccc" /><path
               style="fill:none;stroke:#1a1a1a;stroke-width:0.51509249;stroke-linecap:round;stroke-linejoin:round;stroke-dasharray:none"
               d="m 249.57255,23.007838 c -1.92471,2.555631 -2.6137,2.931927 -3.7754,2.752161"
               id="path10-3"
               sodipodi:nodetypes="cc" /><path
               style="fill:none;stroke:#1a1a1a;stroke-width:0.51509249;stroke-linecap:round;stroke-linejoin:round;stroke-dasharray:none"
               d="m 245.80026,25.745754 c -0.77512,-0.06553 -1.65239,-0.792185 -0.34101,-1.039225"
               id="path11"
               sodipodi:nodetypes="cc" /><path
               style="fill:none;stroke:#1a1a1a;stroke-width:0.51509249;stroke-linecap:round;stroke-linejoin:round;stroke-dasharray:none"
               d="m 246.86399,20.043988 c -1.42887,-0.26811 -3.04364,0.09411 -4.01089,1.236883 -0.98102,0.506048 0.39981,0.865374 0.43761,1.202952 -0.70195,0.61006 -2.47871,0.412486 -1.93887,-0.838103 0.50098,-0.868327 1.4492,-1.319234 2.23906,-1.881103 0.78185,-0.50976 1.71301,-0.731049 2.63975,-0.603571 1.08082,0.33817 2.34514,0.06728 3.27739,0.745305 0.86844,0.493898 0.60324,2.294055 -0.55816,1.703092 -0.32778,-0.68282 -0.81003,-1.641404 -1.7706,-1.319069 -0.86319,0.307332 -1.78034,0.930894 -2.16907,1.785094 -0.0968,0.346475 -0.0938,0.71052 -0.17088,1.060807"
               id="path13-4" /><path
               style="fill:none;stroke:#1a1a1a;stroke-width:0.51509249;stroke-linecap:round;stroke-linejoin:round;stroke-dasharray:none"
               d="m 246.82675,20.057116 c -1.00964,0.436122 -1.80933,1.224172 -2.32235,1.717265 -0.0639,0.47899 -0.44373,0.487735 -0.87048,0.532804"
               id="path14-3"
               sodipodi:nodetypes="ccc" /><path
               style="fill:none;stroke:#1a1a1a;stroke-width:0.51509249;stroke-linecap:round;stroke-linejoin:round;stroke-dasharray:none"
               d="m 243.74954,22.504649 c 0.64211,-0.04855 0.78422,1.350719 0.89832,1.097201 0.0446,-0.17958 0.0859,-0.360523 0.10773,-0.544539"
               id="path15" /><path
               style="fill:none;stroke:#1a1a1a;stroke-width:0.51509249;stroke-linecap:round;stroke-linejoin:round;stroke-dasharray:none"
               d="m 245.39191,21.794084 c 0.31394,-0.433247 0.78035,-0.659384 1.31136,-0.618395"
               id="path17" /><path
               style="fill:none;stroke:#1a1a1a;stroke-width:0.51509249;stroke-linecap:round;stroke-linejoin:round;stroke-dasharray:none"
               d="m 242.07928,24.367299 c -0.74938,-0.431523 -1.70251,-0.484383 -2.31892,-1.150456 -0.4608,-0.34415 -0.39985,-1.05124 -0.88066,-1.383357"
               id="path18-0" /><path
               style="fill:none;stroke:#1a1a1a;stroke-width:0.51509249;stroke-linecap:round;stroke-linejoin:round;stroke-dasharray:none"
               d="m 239.41167,22.15704 c 0.0634,-1.005513 0.32882,-2.074207 1.32197,-2.553676 0.91979,-0.61769 1.85106,-1.212763 2.87425,-1.654644 0.90928,-0.433321 1.91622,-0.763989 2.92476,-0.474134 0.99285,-0.36063 2.03906,0.01056 3.00803,-0.475733"
               id="path19-4"
               sodipodi:nodetypes="ccccc" /><path
               style="fill:none;stroke:#1a1a1a;stroke-width:0.51509249;stroke-linecap:round;stroke-linejoin:round;stroke-dasharray:none"
               d="m 248.55789,17.219192 c 1.02704,-0.474795 2.089,-1.250243 1.94901,-2.410571"
               id="path20-8"
               sodipodi:nodetypes="cc" /><path
               style="fill:none;stroke:#1a1a1a;stroke-width:0.51509249;stroke-linecap:round;stroke-linejoin:round;stroke-dasharray:none"
               d="m 250.125,13.754845 c 1.03509,-0.209767 1.70318,0.611122 1.96236,0.982725 0.42407,0.608015 0.0639,1.643577 -0.16516,2.062069"
               id="path21-7"
               sodipodi:nodetypes="csc" /><path
               style="fill:none;stroke:#1a1a1a;stroke-width:0.51509249;stroke-linecap:round;stroke-linejoin:round;stroke-dasharray:none"
               d="m 251.87334,14.440268 c 0.6711,0.168195 1.42823,0.310153 1.63904,0.995787 0.99856,0.671076 1.35659,1.967224 0.2768,2.827121"
               id="path22-5"
               sodipodi:nodetypes="ccc" /><path
               style="fill:none;stroke:#1a1a1a;stroke-width:0.51509249;stroke-linecap:round;stroke-linejoin:round;stroke-dasharray:none"
               d="m 251.9113,18.903178 c 0.0494,-1.187674 -0.79017,-1.257181 -1.81436,-1.006011"
               id="path23-9"
               sodipodi:nodetypes="cc" /><path
               style="fill:none;stroke:#1a1a1a;stroke-width:0.51509249;stroke-linecap:round;stroke-linejoin:round;stroke-dasharray:none"
               d="m 246.86857,17.243732 c -0.77162,-0.351628 -1.76615,-0.165247 -2.31136,-0.960496"
               id="path24" /><path
               style="fill:none;stroke:#1a1a1a;stroke-width:0.51509249;stroke-linecap:round;stroke-linejoin:round;stroke-dasharray:none"
               d="m 245.74858,15.83989 c -0.0624,-0.392976 -0.46081,-0.601692 -0.59563,-0.960514"
               id="path25" /><path
               style="fill:none;stroke:#1a1a1a;stroke-width:0.51509249;stroke-linecap:round;stroke-linejoin:round;stroke-dasharray:none"
               d="m 247.84557,16.800412 c 0.0588,-0.58153 -0.16477,-1.144684 -0.42877,-1.650129"
               id="path26" /><path
               style="fill:none;stroke:#1a1a1a;stroke-width:0.51509249;stroke-linecap:round;stroke-linejoin:round;stroke-dasharray:none"
               d="m 254.43016,18.921036 c -0.56257,0.825078 -0.96885,1.285811 -1.37165,1.857021 -0.22113,0.329476 -0.1406,0.696353 -0.12953,1.047927"
               id="path29"
               sodipodi:nodetypes="ccc" /><path
               style="fill:none;stroke:#1a1a1a;stroke-width:0.51509249;stroke-linecap:round;stroke-linejoin:round;stroke-dasharray:none"
               d="m 251.70589,22.373637 c 1.21891,-0.549579 1.98698,-0.889193 3.32517,-0.561395 0.94871,0.31093 1.94646,0.558457 2.19512,1.659349"
               id="path31-5"
               sodipodi:nodetypes="ccc" /><path
               style="fill:none;stroke:#1a1a1a;stroke-width:0.51509249;stroke-linecap:round;stroke-linejoin:round;stroke-dasharray:none"
               d="m 254.16415,16.05966 c 0.39512,0.332825 0.79815,0.92018 1.42127,1.431335 0.6605,0.699973 1.01195,1.369597 1.35817,2.783924 0.64197,1.088132 0.79602,2.976364 0.33417,3.14799 -0.18953,0.65847 -0.60378,0.757958 -1.64306,0.893844 -0.73383,0.225957 -1.05576,0.668357 -1.60306,0.324308 -1.40507,0.538395 -1.16706,-0.418769 -1.86242,-1.071736 -0.12965,-0.0803 -0.24201,-0.12621 -0.39355,-0.154871"
               id="path32-3"
               sodipodi:nodetypes="cccccccc" /><path
               style="fill:none;stroke:#1a1a1a;stroke-width:0.51509249;stroke-linecap:round;stroke-linejoin:round;stroke-dasharray:none"
               d="m 251.5758,23.38317 c -0.51011,0.501086 -1.43831,0.220928 -2.05185,1.057521 -0.62997,0.650632 -2.32132,1.940943 -4.06398,2.431745"
               id="path33"
               sodipodi:nodetypes="ccc" /><path
               style="fill:none;stroke:#1a1a1a;stroke-width:0.51509249;stroke-linecap:round;stroke-linejoin:round;stroke-dasharray:none"
               d="m 243.12042,25.271153 c -0.19861,0.826373 -0.35346,2.168799 0.48865,2.243436 0.65085,0.416073 1.94305,0.416389 2.88796,-0.222771 1.07678,-0.544848 1.20087,-0.864364 2.42539,-1.317688"
               id="path34-2"
               sodipodi:nodetypes="cccc" /><path
               style="fill:none;stroke:#1a1a1a;stroke-width:0.51509249;stroke-linecap:round;stroke-linejoin:round;stroke-dasharray:none"
               d="m 253.21801,24.839082 c 0.64016,0.452191 1.81479,1.024956 2.32363,1.803788 0.414,1.1387 -0.93412,1.733452 -1.62753,2.081575 -0.46237,0.562219 -0.87944,0.550469 -1.50959,0.455995"
               id="path35-7"
               sodipodi:nodetypes="cccc" /><path
               style="fill:none;stroke:#1a1a1a;stroke-width:0.51509249;stroke-linecap:round;stroke-linejoin:round;stroke-dasharray:none"
               d="m 252.40545,28.245034 c 0.63332,1.327271 -1.64414,1.280517 -2.354,0.371653 -0.71286,-0.653954 0.73722,-0.712209 0.42729,-0.885233 -0.34597,-0.193142 -0.34704,-0.42311 -0.41423,-0.621942 -0.0604,-0.179039 -0.1179,-0.240263 -0.14467,-0.336452 -0.1471,-0.02369 -0.39156,0.978229 -0.65379,0.02689 -0.0704,-0.255553 -0.32284,-0.05949 -0.34251,-0.773076"
               id="path36-3"
               sodipodi:nodetypes="ccsscsc" /><path
               style="fill:none;stroke:#1a1a1a;stroke-width:0.51509249;stroke-linecap:round;stroke-linejoin:round;stroke-dasharray:none"
               d="m 253.36738,25.252348 c -0.53327,0.575756 -0.77224,0.647504 -2.04181,0.710643"
               id="path37-9"
               sodipodi:nodetypes="cc" /><path
               style="fill:none;stroke:#1a1a1a;stroke-width:0.51509249;stroke-linecap:round;stroke-linejoin:round;stroke-dasharray:none"
               d="m 251.08452,26.128838 c -0.73008,0.3999 -0.38789,0.563868 -1.05109,0.724452"
               id="path38"
               sodipodi:nodetypes="cc" /><path
               style="fill:none;stroke:#1a1a1a;stroke-width:0.51509249;stroke-linecap:round;stroke-linejoin:round;stroke-dasharray:none"
               d="m 252.46738,23.966154 c -0.56915,-0.425684 -1.18294,-0.52735 -1.62216,0.164473 -0.54238,0.0073 -0.73519,0.362552 -0.67779,0.888665 -0.9312,-0.238131 -0.44261,0.844434 -1.30922,0.989808"
               id="path39-7"
               sodipodi:nodetypes="cccc" /><path
               style="fill:none;stroke:#1a1a1a;stroke-width:0.51509249;stroke-linecap:round;stroke-linejoin:round;stroke-dasharray:none"
               d="m 243.51166,16.269193 c 0.0306,0.398571 0.0369,0.805282 -0.0527,1.197259"
               id="path40" /><path
               style="fill:none;stroke:#1a1a1a;stroke-width:0.51509249;stroke-linecap:round;stroke-linejoin:round;stroke-dasharray:none"
               d="m 241.16943,18.384323 c -0.37306,0.449641 -0.8827,0.598337 -1.3323,0.91988"
               id="path41"
               sodipodi:nodetypes="cc" /><path
               style="fill:none;stroke:#1a1a1a;stroke-width:0.51509249;stroke-linecap:round;stroke-linejoin:round;stroke-dasharray:none"
               d="m 237.34673,21.419277 c 0.006,0.22728 -0.0277,0.453088 -0.0264,0.68026"
               id="path42-7" /><path
               style="fill:none;stroke:#1a1a1a;stroke-width:0.51509249;stroke-linecap:round;stroke-linejoin:round;stroke-dasharray:none"
               d="m 252.04105,23.409271 c 0.25285,0.04619 0.47763,-0.09489 0.70009,-0.18667"
               id="path43" /><path
               style="fill:none;stroke:#1a1a1a;stroke-width:0.51509249;stroke-linecap:round;stroke-linejoin:round;stroke-dasharray:none"
               d="m 255.00153,23.966164 c -0.14795,0.323829 -1.33722,-0.04481 -1.7045,-0.0545"
               id="path44"
               sodipodi:nodetypes="cc" /><path
               style="fill:none;stroke:#1a1a1a;stroke-width:0.51509249;stroke-linecap:round;stroke-linejoin:round;stroke-dasharray:none"
               d="m 240.04518,24.298797 c -0.56311,-0.01598 -1.03447,-0.372076 -1.49321,-0.621915"
               id="path45" /><path
               style="fill:none;stroke:#1a1a1a;stroke-width:0.51509249;stroke-linecap:round;stroke-linejoin:round;stroke-dasharray:none"
               d="m 253.49496,26.280086 c 0.0115,1.379283 -1.39478,1.886216 -2.3248,0.603227"
               id="path274-9"
               sodipodi:nodetypes="cc" /><path
               style="fill:none;stroke:#1a1a1a;stroke-width:0.51509249;stroke-linecap:round;stroke-linejoin:round;stroke-dasharray:none"
               d="m 244.35632,24.648523 c -0.14757,0.166834 -0.24951,0.600741 -0.56572,0.863149"
               id="path275"
               sodipodi:nodetypes="cc" /></g></g></g></g></g></svg>
