<?xml version="1.0" encoding="UTF-8" standalone="no"?>
<!-- Created with Inkscape (http://www.inkscape.org/) -->

<svg
   width="88.841988mm"
   height="65.102425mm"
   viewBox="0 0 88.841988 65.102425"
   version="1.1"
   id="svg1"
   inkscape:version="1.3.2 (091e20e, 2023-11-25)"
   sodipodi:docname="right_lateral.svg"
   xml:space="preserve"
   xmlns:inkscape="http://www.inkscape.org/namespaces/inkscape"
   xmlns:sodipodi="http://sodipodi.sourceforge.net/DTD/sodipodi-0.dtd"
   xmlns="http://www.w3.org/2000/svg"
   xmlns:svg="http://www.w3.org/2000/svg"><sodipodi:namedview
     id="namedview1"
     pagecolor="#ffffff"
     bordercolor="#000000"
     borderopacity="0.25"
     inkscape:showpageshadow="2"
     inkscape:pageopacity="0.0"
     inkscape:pagecheckerboard="0"
     inkscape:deskcolor="#d1d1d1"
     inkscape:document-units="mm"
     inkscape:zoom="2.0002365"
     inkscape:cx="117.23614"
     inkscape:cy="173.47949"
     inkscape:window-width="1728"
     inkscape:window-height="1055"
     inkscape:window-x="0"
     inkscape:window-y="34"
     inkscape:window-maximized="1"
     inkscape:current-layer="g1065-8-9"
     showguides="false" /><defs
     id="defs1" /><g
     inkscape:label="Layer 1"
     inkscape:groupmode="layer"
     id="layer1"
     transform="translate(1.4692591,-0.22245919)"><g
       id="g1067-1-0"
       transform="matrix(2.2827467,0,0,2.2086629,-137.99834,310.89713)"><g
         id="g1066-0-3"
         transform="matrix(-1.2917277,0,0,1.2917277,186.25467,24.53971)"
         style="stroke-width:0.226054;stroke-dasharray:none"><g
           id="g1065-8-9"
           transform="matrix(1.4464692,0,0,1.4464692,-274.77444,-147.32699)"
           style="stroke-width:0.15628;stroke-dasharray:none"><g
             id="g2"
             transform="matrix(-0.98459216,0,0,0.99011868,492.16571,-18.263326)"
             style="stroke-width:0.51106401;stroke-dasharray:none"><path
               style="fill:none;fill-opacity:1;stroke:#000000;stroke-width:0.51106401;stroke-linecap:round;stroke-linejoin:round;stroke-dasharray:none;stroke-opacity:1"
               d="m 249.23722,32.646673 c 0.9367,-0.3275 2.04301,-0.127895 2.67772,0.469619 0.96547,0.142365 2.3691,0.420791 2.92295,1.272934 1.03985,0.336358 0.93064,0.836612 1.71688,1.259385 0.96133,0.956659 1.86632,2.207015 2.18645,3.520616 0.94773,0.606778 0.4026,1.328545 0.49536,2.213086 0.003,1.466473 -1.02572,2.071386 -1.79724,2.414346 -0.47661,0.700922 -1.89389,0.965497 -3.06498,0.645738 l -1.82596,-0.613316"
               id="path999-1-5"
               sodipodi:nodetypes="ccccccccc" /><path
               style="fill:none;fill-opacity:1;stroke:#000000;stroke-width:0.51106401;stroke-linecap:round;stroke-linejoin:round;stroke-dasharray:none;stroke-opacity:1"
               d="m 253.07636,40.725474 c -0.28522,0.01096 -1.19987,0.195956 -1.41336,0.05609"
               id="path1000-4-3"
               sodipodi:nodetypes="cc" /><path
               style="fill:none;fill-opacity:1;stroke:#000000;stroke-width:0.51106401;stroke-linecap:round;stroke-linejoin:round;stroke-dasharray:none;stroke-opacity:1"
               d="m 254.01391,43.202318 c 0.97583,0.320374 2.1222,0.108822 2.91624,-0.54567"
               id="path1001-8-1" /><path
               style="fill:none;fill-opacity:1;stroke:#000000;stroke-width:0.51106401;stroke-linecap:round;stroke-linejoin:round;stroke-dasharray:none;stroke-opacity:1"
               d="m 254.66694,43.381228 c -0.29311,0.227888 -0.62304,0.3957 -0.95717,0.554623"
               id="path1002-8-1" /><path
               style="fill:none;fill-opacity:1;stroke:#000000;stroke-width:0.51106401;stroke-linecap:round;stroke-linejoin:round;stroke-dasharray:none;stroke-opacity:1"
               d="m 256.37553,43.086026 c 0.37115,-0.03289 0.71895,-0.182857 1.09135,-0.214693"
               id="path1003-4-2" /><path
               style="fill:none;fill-opacity:1;stroke:#000000;stroke-width:0.51106401;stroke-linecap:round;stroke-linejoin:round;stroke-dasharray:none;stroke-opacity:1"
               d="m 248.67671,40.486922 c 2.76545,0.902135 4.90647,4.281974 4.06477,5.480623 -0.75631,0.762035 -1.92637,0.706473 -2.94454,0.379572 -1.47922,-0.245092 -1.79138,-1.090637 -2.90744,-1.253655 -0.75382,-0.196596 -1.64743,-0.484668 -2.03491,-1.117557 -0.9647,0.03959 -1.82767,-0.297872 -2.76247,-0.413569 -0.15369,-0.173503 -0.53351,-0.309322 -1.56596,-0.25616"
               id="path1004-5-6"
               sodipodi:nodetypes="ccccccc" /><path
               style="fill:none;fill-opacity:1;stroke:#000000;stroke-width:0.51106401;stroke-linecap:round;stroke-linejoin:round;stroke-dasharray:none;stroke-opacity:1"
               d="m 242.38476,41.800013 c -0.80215,0.399743 -1.06388,1.053915 -1.82121,1.489693 -0.5201,0.103069 -1.74692,-0.87628 -2.27081,-0.827047 -0.13466,-0.8423 -0.14079,-1.25869 -0.0349,-1.739988 0.0232,-0.917275 0.19255,-1.672325 0.80122,-2.341977 0.51587,-0.795089 0.42085,-2.163828 1.4339,-2.499653 0.51627,-0.489777 0.64631,-0.907338 1.46993,-1.731112 0.71007,-1.199079 1.73258,-0.981511 2.4651,-0.749606 0.49562,0.03107 0.67963,0.4469 0.94375,0.787953"
               id="path1005-7-9"
               sodipodi:nodetypes="ccccccccc" /><path
               style="fill:none;fill-opacity:1;stroke:#000000;stroke-width:0.51106401;stroke-linecap:round;stroke-linejoin:round;stroke-dasharray:none;stroke-opacity:1"
               d="m 243.21804,33.225981 c 0.83009,-0.540525 1.15341,-0.982407 3.0613,-1.170246 0.31964,-0.01994 1.19886,0.05595 1.54201,0.122891 0.86672,-0.204788 2.24564,-0.06613 2.61357,0.277372"
               id="path1006-9-1"
               sodipodi:nodetypes="cccc" /><path
               style="fill:none;fill-opacity:1;stroke:#000000;stroke-width:0.51106401;stroke-linecap:round;stroke-linejoin:round;stroke-dasharray:none;stroke-opacity:1"
               d="m 244.0637,43.769281 c -0.84751,-0.155179 -0.95513,-1.144703 -1.34667,-1.730745 -0.0488,-0.133031 -0.18557,-0.175028 -0.30216,-0.224629"
               id="path1007-8-90" /><path
               style="fill:none;fill-opacity:1;stroke:#000000;stroke-width:0.51106401;stroke-linecap:round;stroke-linejoin:round;stroke-dasharray:none;stroke-opacity:1"
               d="m 242.05175,40.002472 c -0.74248,-0.979268 1.31083,-0.79923 1.74951,-0.885353"
               id="path1008-4-6"
               sodipodi:nodetypes="cc" /><path
               style="fill:none;fill-opacity:1;stroke:#000000;stroke-width:0.51106401;stroke-linecap:round;stroke-linejoin:round;stroke-dasharray:none;stroke-opacity:1"
               d="m 239.14849,41.291639 c 0.48905,-0.527206 0.12019,-1.903983 0.32719,-2.382468"
               id="path1010-8-7"
               sodipodi:nodetypes="cc" /><path
               style="fill:none;fill-opacity:1;stroke:#000000;stroke-width:0.51106401;stroke-linecap:round;stroke-linejoin:round;stroke-dasharray:none;stroke-opacity:1"
               d="m 240.28534,37.426161 c 0.26554,-0.804478 0.60027,-0.807332 1.31235,-1.299118 0.54874,-1.209683 2.1469,-0.928984 3.13403,-0.379442 0.74395,-0.09072 1.25389,-0.517405 1.98852,-0.427421"
               id="path1011-8-3"
               sodipodi:nodetypes="cccc" /><path
               style="fill:none;fill-opacity:1;stroke:#000000;stroke-width:0.51106401;stroke-linecap:round;stroke-linejoin:round;stroke-dasharray:none;stroke-opacity:1"
               d="m 242.66354,36.902953 c 0.25977,0.732554 1.59581,2.106382 1.39707,2.818613"
               id="path1012-9-8"
               sodipodi:nodetypes="cc" /><path
               style="fill:none;fill-opacity:1;stroke:#000000;stroke-width:0.51106401;stroke-linecap:round;stroke-linejoin:round;stroke-dasharray:none;stroke-opacity:1"
               d="m 244.24917,39.935447 c 0.85427,0.400928 1.40831,1.349221 2.20539,1.717758 0.71664,0.451793 1.21876,0.46905 1.96576,0.896534 0.91119,0.08252 1.27762,1.264209 2.23664,1.307935 0.194,0.0743 0.32501,0.243216 0.52111,0.316016"
               id="path1015-0-6"
               sodipodi:nodetypes="ccccc" /><path
               style="fill:none;fill-opacity:1;stroke:#000000;stroke-width:0.51106401;stroke-linecap:round;stroke-linejoin:round;stroke-dasharray:none;stroke-opacity:1"
               d="m 248.38516,40.370272 c -0.74708,-0.479094 -2.41997,-1.249801 -2.22282,-2.218538"
               id="path1018-6-4"
               sodipodi:nodetypes="cc" /><path
               style="fill:none;fill-opacity:1;stroke:#000000;stroke-width:0.51106401;stroke-linecap:round;stroke-linejoin:round;stroke-dasharray:none;stroke-opacity:1"
               d="m 250.98234,45.467863 c -0.76292,-0.15375 -1.43623,-0.627141 -2.01598,-1.122277 -0.57113,-0.03248 -0.98282,-0.244646 -1.38918,-0.640526 -0.64936,-0.492017 -1.76884,0.201395 -2.16791,-0.799278 -0.0787,-0.101566 -0.12392,-0.24141 -0.25183,-0.295624"
               id="path1024-2-2" /><path
               style="fill:none;fill-opacity:1;stroke:#000000;stroke-width:0.51106401;stroke-linecap:round;stroke-linejoin:round;stroke-dasharray:none;stroke-opacity:1"
               d="m 245.83628,43.40944 c -0.20075,0.07385 -0.32652,0.249739 -0.4927,0.372268"
               id="path1025-4-4" /><path
               style="fill:none;fill-opacity:1;stroke:#000000;stroke-width:0.51106401;stroke-linecap:round;stroke-linejoin:round;stroke-dasharray:none;stroke-opacity:1"
               d="m 244.91301,34.413581 c 0.16247,0.686057 1.05333,0.958884 1.13398,-0.225478 -5.8e-4,-0.470962 0.16605,-1.00774 0.58207,-1.274832"
               id="path1027-7-4"
               sodipodi:nodetypes="ccc" /><path
               style="fill:none;fill-opacity:1;stroke:#000000;stroke-width:0.51106401;stroke-linecap:round;stroke-linejoin:round;stroke-dasharray:none;stroke-opacity:1"
               d="m 247.16961,36.090347 c 0.18995,-0.470165 -0.0474,-0.477023 0.30806,-0.889359"
               id="path1030-0-79"
               sodipodi:nodetypes="cc" /><path
               style="fill:none;fill-opacity:1;stroke:#000000;stroke-width:0.51106401;stroke-linecap:round;stroke-linejoin:round;stroke-dasharray:none;stroke-opacity:1"
               d="m 249.69686,38.545564 c 0.0466,-0.850687 0.41575,-1.151831 -0.16529,-1.887654 -0.30273,-0.661314 -0.78904,-1.080157 -0.60676,-1.882671 -0.0942,-1.051272 -1.54143,-0.930479 -1.82115,-1.79878"
               id="path1033-0-0"
               sodipodi:nodetypes="cccc" /><path
               style="fill:none;fill-opacity:1;stroke:#000000;stroke-width:0.51106401;stroke-linecap:round;stroke-linejoin:round;stroke-dasharray:none;stroke-opacity:1"
               d="m 248.68258,32.797538 c 0.57835,0.641321 1.33323,1.163561 1.24813,1.812057"
               id="path1035-7-1"
               sodipodi:nodetypes="cc" /><path
               style="fill:none;fill-opacity:1;stroke:#000000;stroke-width:0.51106401;stroke-linecap:round;stroke-linejoin:round;stroke-dasharray:none;stroke-opacity:1"
               d="m 249.91657,34.440735 c 0.27447,-0.117939 0.4916,0.09997 0.67601,0.229009"
               id="path1037-7-2"
               sodipodi:nodetypes="cc" /><path
               style="fill:none;fill-opacity:1;stroke:#000000;stroke-width:0.51106401;stroke-linecap:round;stroke-linejoin:round;stroke-dasharray:none;stroke-opacity:1"
               d="m 250.50755,34.879455 c 0.20589,-0.697307 1.53651,-0.809154 2.17753,-0.342803 0.65592,0.217852 1.46472,0.713151 1.75866,1.569264 0.39866,0.153512 0.62532,0.326015 0.86164,0.775843"
               id="path1038-5-2"
               sodipodi:nodetypes="cccc" /><path
               style="fill:none;fill-opacity:1;stroke:#000000;stroke-width:0.51106401;stroke-linecap:round;stroke-linejoin:round;stroke-dasharray:none;stroke-opacity:1"
               d="m 250.86671,35.982013 c 0.57283,0.57858 1.28478,0.792172 1.05309,1.739456 0.009,0.744019 -0.3112,2.161611 -1.21508,1.543005"
               id="path1040-9-4"
               sodipodi:nodetypes="ccc" /><path
               style="fill:none;fill-opacity:1;stroke:#000000;stroke-width:0.51106401;stroke-linecap:round;stroke-linejoin:round;stroke-dasharray:none;stroke-opacity:1"
               d="m 251.97882,37.698545 c 0.79559,-0.335072 1.41282,0.688811 2.07592,0.889337"
               id="path1042-4-7"
               sodipodi:nodetypes="cc" /><path
               style="fill:none;fill-opacity:1;stroke:#000000;stroke-width:0.51106401;stroke-linecap:round;stroke-linejoin:round;stroke-dasharray:none;stroke-opacity:1"
               d="m 254.75464,39.30047 c 0.74027,-0.09617 1.58388,0.39161 1.26364,1.422242"
               id="path1043-9-7"
               sodipodi:nodetypes="cc" /><path
               style="fill:none;fill-opacity:1;stroke:#000000;stroke-width:0.51106401;stroke-linecap:round;stroke-linejoin:round;stroke-dasharray:none;stroke-opacity:1"
               d="m 253.70282,40.845249 c 0.25088,0.224821 0.73255,0.520397 0.59657,1.126736"
               id="path1044-1-2"
               sodipodi:nodetypes="cc" /><path
               style="fill:none;fill-opacity:1;stroke:#000000;stroke-width:0.51106401;stroke-linecap:round;stroke-linejoin:round;stroke-dasharray:none;stroke-opacity:1"
               d="m 251.97419,37.590676 c 0.15613,-0.207993 0.42323,-0.282406 0.57544,-0.493229"
               id="path1047-8-0" /><path
               style="fill:none;fill-opacity:1;stroke:#000000;stroke-width:0.51106401;stroke-linecap:round;stroke-linejoin:round;stroke-dasharray:none;stroke-opacity:1"
               d="m 254.48427,37.263059 c 0.58346,0.122699 1.19808,-0.177939 1.75561,0.440668 0.36991,0.264857 1.31722,0.919954 1.23183,1.947652 0.005,0.556622 1.1956,1.00147 0.40127,2.169211"
               id="path1050-9-6"
               sodipodi:nodetypes="cccc" /><path
               style="fill:none;fill-opacity:1;stroke:#000000;stroke-width:0.51106401;stroke-linecap:round;stroke-linejoin:round;stroke-dasharray:none;stroke-opacity:1"
               d="m 246.44486,44.969033 c -0.21468,0.551052 -0.27799,1.521111 -0.85299,0.379883 -0.24723,0.674599 0.61668,1.826502 -0.63052,2.067623 -1.13921,0.587597 -2.56434,0.197613 -3.57476,-0.490517 -0.56594,-0.454662 -1.75069,-1.174182 -1.11912,-2.00272 0.39395,-0.667611 1.18084,-0.969941 1.75841,-1.394921"
               id="path1057-6-44"
               sodipodi:nodetypes="cccccc" /><path
               style="fill:none;fill-opacity:1;stroke:#000000;stroke-width:0.51106401;stroke-linecap:round;stroke-linejoin:round;stroke-dasharray:none;stroke-opacity:1"
               d="m 245.61012,45.534866 c -0.32292,-0.836262 -1.34017,-0.787221 -2.06323,-1.028312 -0.7572,-0.06818 -1.46192,-0.422148 -2.2313,-0.340644 h -0.0242"
               id="path1058-1-8" /><path
               style="fill:none;fill-opacity:1;stroke:#000000;stroke-width:0.51106401;stroke-linecap:round;stroke-linejoin:round;stroke-dasharray:none;stroke-opacity:1"
               d="m 245.40053,45.596002 c -0.23486,1.018752 -1.52682,0.791054 -2.2752,0.536999 -0.81116,-0.384141 -1.84234,-0.557794 -2.34267,-1.380915 l -0.0548,-0.123401"
               id="path1059-9-0" /><path
               style="fill:none;fill-opacity:1;stroke:#000000;stroke-width:0.51106401;stroke-linecap:round;stroke-linejoin:round;stroke-dasharray:none;stroke-opacity:1"
               d="m 240.41442,45.286824 c 0.35349,0.194808 0.76395,0.163243 1.12824,0.329069"
               id="path1060-6-1" /><path
               style="fill:none;fill-opacity:1;stroke:#000000;stroke-width:0.51106401;stroke-linecap:round;stroke-linejoin:round;stroke-dasharray:none;stroke-opacity:1"
               d="m 245.49038,45.530442 c -0.93524,-0.481001 -2.04438,-0.308717 -2.99185,-0.760726 -0.40187,-0.07576 -0.78459,-0.193531 -1.17525,-0.3134"
               id="path1061-7-5" /><path
               style="fill:none;fill-opacity:1;stroke:#000000;stroke-width:0.51106401;stroke-linecap:round;stroke-linejoin:round;stroke-dasharray:none;stroke-opacity:1"
               d="m 245.39747,46.211353 c -0.64782,0.744101 -1.69395,0.953682 -2.64822,0.814837 -0.15197,-0.01039 -0.30352,-0.02642 -0.45443,-0.04701"
               id="path1062-8-1" /><path
               style="fill:none;fill-opacity:1;stroke:#000000;stroke-width:0.51106401;stroke-linecap:round;stroke-linejoin:round;stroke-dasharray:none;stroke-opacity:1"
               d="m 245.56984,46.493412 c -0.35015,0.575026 -1.14245,0.772297 -1.75504,0.940197"
               id="path1063-9-1" /><path
               style="fill:none;fill-opacity:1;stroke:#000000;stroke-width:0.51106401;stroke-linecap:round;stroke-linejoin:round;stroke-dasharray:none;stroke-opacity:1"
               d="m 241.95252,44.136696 c -0.0329,-0.02974 -0.16208,-0.1385 -0.19373,-0.16314"
               id="path1064-7-1" /><path
               style="fill:none;fill-opacity:1;stroke:#000000;stroke-width:0.51106401;stroke-linecap:round;stroke-linejoin:round;stroke-dasharray:none;stroke-opacity:1"
               d="m 244.98972,44.529022 c -0.43675,-0.218519 -0.9067,-0.354185 -1.37798,-0.47734"
               id="path1065-5-5" /><path
               style="fill:none;fill-opacity:1;stroke:#000000;stroke-width:0.51106401;stroke-linecap:round;stroke-linejoin:round;stroke-dasharray:none;stroke-opacity:1"
               d="m 247.44934,38.481744 c 0.0528,0.322865 3.54016,1.72961 3.95905,2.18898"
               id="path2"
               sodipodi:nodetypes="cc" /><path
               style="fill:none;fill-opacity:1;stroke:#000000;stroke-width:0.51106401;stroke-linecap:round;stroke-linejoin:round;stroke-dasharray:none;stroke-opacity:1"
               d="m 254.11313,42.187064 c -0.15452,0.348645 -1.36178,1.430959 -1.67317,1.217673"
               id="path3"
               sodipodi:nodetypes="cc" /></g></g></g></g></g></svg>
